# debris rock 3 (perturbed icosphere, seed=1411)
v -0.512444 0.741959 0.000000
v 0.552062 0.799321 0.000000
v -0.466297 -0.675143 0.000000
v 0.848819 -1.228990 0.000000
v 0.000000 -0.433123 0.599750
v 0.000000 0.699254 0.968265
v 0.000000 -0.484910 -0.671460
v 0.000000 0.434682 -0.601909
v 1.234599 0.000000 -0.584326
v 1.274878 0.000000 0.603390
v -1.203391 0.000000 -0.569556
v -0.745868 0.000000 0.353014
v -1.141704 0.631410 0.333961
v -0.841349 0.465301 1.042512
v -0.353674 0.828561 0.438236
v 0.448471 1.050644 0.555699
v 0.000000 1.430957 0.000000
v 0.360114 0.843646 -0.446215
v -0.292788 0.685920 -0.362792
v -0.600604 0.332159 -0.744206
v -1.091647 0.603726 -0.319318
v -0.860777 0.000000 0.000000
v 0.702130 0.388307 0.870006
v 0.734783 0.406366 0.214932
v -0.636007 -0.351738 0.788073
v 0.000000 0.000000 1.129155
v -1.121527 -0.620252 -0.328059
v -0.962561 -0.532337 0.281560
v 0.000000 0.000000 -1.041636
v -0.821305 -0.454216 -1.017676
v 0.668384 0.369644 -0.195510
v 0.628108 0.347370 -0.778286
v 0.681636 -0.376974 0.199386
v 0.641200 -0.354611 0.794509
v 0.359047 -0.841149 0.444894
v -0.369407 -0.865418 0.457731
v 0.000000 -1.185796 0.000000
v -0.364791 -0.854604 -0.452011
v 0.515900 -1.208611 -0.639249
v 0.492516 -0.272382 -0.610275
v 0.695354 -0.384560 -0.203399
v 1.341009 0.000000 0.000000
v -1.004448 0.909530 0.178085
v -0.746784 0.782404 0.413823
v -0.713587 1.269575 0.327325
v -1.159997 0.237488 0.877870
v -0.812044 0.449094 0.531137
v -1.211675 0.326649 0.466700
v -0.151421 0.585261 0.506833
v -0.542807 0.671257 0.672590
v -0.432828 0.646615 1.100230
v -0.158205 0.828755 0.196031
v -0.351432 1.107002 0.000000
v 0.183260 0.708323 0.613404
v 0.000000 1.067495 0.564611
v 0.349649 1.101383 0.000000
v 0.260672 1.365529 0.322998
v 0.481764 0.857128 0.220987
v -0.245623 1.286692 -0.304350
v -0.620381 1.103747 -0.284571
v 0.710904 1.264801 -0.326094
v 0.239881 1.256615 -0.297236
v -0.133157 0.514666 -0.445698
v 0.000000 1.171395 -0.619566
v 0.238452 0.921646 -0.798141
v -0.840517 0.880608 -0.465765
v -0.800471 0.724828 -0.141921
v -0.339465 0.507138 -0.862906
v -0.645807 0.798631 -0.800217
v -0.777977 0.209730 -0.299653
v -0.588163 0.325279 -0.384702
v -0.840071 0.171989 -0.635755
v -1.369010 0.757120 0.000000
v -1.276578 0.000000 -0.277718
v -1.419125 0.350989 -0.185643
v -1.283853 0.317533 0.167947
v -1.294199 0.000000 0.281551
v 0.716890 0.751084 0.397258
v 0.845474 0.765578 0.149900
v 0.404794 0.604736 1.028970
v 0.458404 0.566880 0.568006
v 1.406243 0.379101 0.541641
v 0.611031 0.337926 0.399660
v 0.899013 0.184056 0.680361
v -0.302095 0.167071 0.837014
v 0.000000 0.276805 0.833884
v -0.849970 -0.174016 0.643246
v -0.777756 0.000000 0.963714
v 0.000000 -0.219921 0.662519
v -0.360692 -0.199478 0.999371
v -0.261891 -0.391247 0.665715
v -0.821464 -0.203171 0.107460
v -1.213757 -0.327210 0.467502
v -1.460934 -0.393845 -0.562707
v -0.934529 -0.231135 -0.122250
v -0.581256 -0.526329 0.103055
v -1.100266 -0.608493 0.000000
v -0.874648 -0.791995 -0.155072
v -0.739202 0.000000 -0.915942
v -1.006684 -0.206100 -0.761845
v 0.000000 0.277742 -0.836709
v -0.372698 0.206118 -1.032635
v -0.426038 -0.636472 -1.082970
v -0.331057 -0.183088 -0.917259
v 0.000000 -0.238502 -0.718497
v 0.438302 0.542022 -0.543099
v 0.299309 0.447148 -0.760832
v 1.081686 0.979469 -0.191779
v 0.729612 0.764413 -0.404308
v 1.036807 0.212267 -0.784641
v 0.718282 0.397240 -0.469810
v 1.062607 0.286462 -0.409284
v 1.152210 -1.043329 0.204283
v 0.723001 -0.757487 0.400644
v 0.708861 -1.261167 0.325157
v 0.858682 -0.175799 0.649839
v 0.575141 -0.318077 0.376185
v 0.808708 -0.218015 0.311489
v 0.261686 -1.011446 0.875907
v 0.620093 -0.766831 0.768354
v 0.265279 -0.396309 0.674329
v 0.203607 -1.066591 0.252288
v 0.319028 -1.004929 0.000000
v -0.242903 -0.938850 0.813040
v 0.000000 -1.152395 0.609516
v -0.345899 -1.089571 0.000000
v -0.275118 -1.441202 0.340897
v -0.461611 -0.821272 0.211742
v 0.161790 -0.847535 -0.200473
v 0.577844 -1.028069 -0.265059
v -0.606486 -1.079027 -0.278197
v -0.182808 -0.957637 -0.226516
v 0.239043 -0.923930 -0.800118
v 0.000000 -0.675543 -0.357303
v -0.198849 -0.768576 -0.665583
v 0.756593 -0.792681 -0.419259
v 0.654684 -0.592818 -0.116073
v 0.399917 -0.597450 -1.016573
v 0.527441 -0.652254 -0.653550
v 1.318457 -0.355435 -0.507829
v 0.687099 -0.379995 -0.449414
v 0.700286 -0.143371 -0.529967
v 0.849407 -0.469758 0.000000
v 1.174931 0.000000 -0.255605
v 0.839013 -0.207511 -0.109755
v 1.004707 -0.248492 0.131431
v 1.230669 0.000000 0.267730
v 0.277149 -0.153275 0.767897
v 0.720370 0.000000 0.892608
v 0.431905 0.238862 1.196681
v -0.967292 -1.013429 0.536016
v -0.641429 -0.793217 0.794792
v -0.664049 -0.367247 0.434337
v -0.454266 -0.561764 -0.562879
v -0.820107 -0.859225 -0.454455
v -0.665853 -0.368244 -0.435517
v 0.484298 0.000000 -0.600091
v 0.416206 -0.230180 -1.153184
v 0.350722 0.193964 -0.971747
v 1.338326 0.331005 0.175073
v 1.255444 0.310506 -0.164231
v 0.792259 0.438152 0.000000
f 1 43 45
f 13 44 43
f 15 45 44
f 43 44 45
f 12 46 48
f 14 47 46
f 13 48 47
f 46 47 48
f 6 49 51
f 15 50 49
f 14 51 50
f 49 50 51
f 13 47 44
f 14 50 47
f 15 44 50
f 47 50 44
f 1 45 53
f 15 52 45
f 17 53 52
f 45 52 53
f 6 54 49
f 16 55 54
f 15 49 55
f 54 55 49
f 2 56 58
f 17 57 56
f 16 58 57
f 56 57 58
f 15 55 52
f 16 57 55
f 17 52 57
f 55 57 52
f 1 53 60
f 17 59 53
f 19 60 59
f 53 59 60
f 2 61 56
f 18 62 61
f 17 56 62
f 61 62 56
f 8 63 65
f 19 64 63
f 18 65 64
f 63 64 65
f 17 62 59
f 18 64 62
f 19 59 64
f 62 64 59
f 1 60 67
f 19 66 60
f 21 67 66
f 60 66 67
f 8 68 63
f 20 69 68
f 19 63 69
f 68 69 63
f 11 70 72
f 21 71 70
f 20 72 71
f 70 71 72
f 19 69 66
f 20 71 69
f 21 66 71
f 69 71 66
f 1 67 43
f 21 73 67
f 13 43 73
f 67 73 43
f 11 74 70
f 22 75 74
f 21 70 75
f 74 75 70
f 12 48 77
f 13 76 48
f 22 77 76
f 48 76 77
f 21 75 73
f 22 76 75
f 13 73 76
f 75 76 73
f 2 58 79
f 16 78 58
f 24 79 78
f 58 78 79
f 6 80 54
f 23 81 80
f 16 54 81
f 80 81 54
f 10 82 84
f 24 83 82
f 23 84 83
f 82 83 84
f 16 81 78
f 23 83 81
f 24 78 83
f 81 83 78
f 6 51 86
f 14 85 51
f 26 86 85
f 51 85 86
f 12 87 46
f 25 88 87
f 14 46 88
f 87 88 46
f 5 89 91
f 26 90 89
f 25 91 90
f 89 90 91
f 14 88 85
f 25 90 88
f 26 85 90
f 88 90 85
f 12 77 93
f 22 92 77
f 28 93 92
f 77 92 93
f 11 94 74
f 27 95 94
f 22 74 95
f 94 95 74
f 3 96 98
f 28 97 96
f 27 98 97
f 96 97 98
f 22 95 92
f 27 97 95
f 28 92 97
f 95 97 92
f 11 72 100
f 20 99 72
f 30 100 99
f 72 99 100
f 8 101 68
f 29 102 101
f 20 68 102
f 101 102 68
f 7 103 105
f 30 104 103
f 29 105 104
f 103 104 105
f 20 102 99
f 29 104 102
f 30 99 104
f 102 104 99
f 8 65 107
f 18 106 65
f 32 107 106
f 65 106 107
f 2 108 61
f 31 109 108
f 18 61 109
f 108 109 61
f 9 110 112
f 32 111 110
f 31 112 111
f 110 111 112
f 18 109 106
f 31 111 109
f 32 106 111
f 109 111 106
f 4 113 115
f 33 114 113
f 35 115 114
f 113 114 115
f 10 116 118
f 34 117 116
f 33 118 117
f 116 117 118
f 5 119 121
f 35 120 119
f 34 121 120
f 119 120 121
f 33 117 114
f 34 120 117
f 35 114 120
f 117 120 114
f 4 115 123
f 35 122 115
f 37 123 122
f 115 122 123
f 5 124 119
f 36 125 124
f 35 119 125
f 124 125 119
f 3 126 128
f 37 127 126
f 36 128 127
f 126 127 128
f 35 125 122
f 36 127 125
f 37 122 127
f 125 127 122
f 4 123 130
f 37 129 123
f 39 130 129
f 123 129 130
f 3 131 126
f 38 132 131
f 37 126 132
f 131 132 126
f 7 133 135
f 39 134 133
f 38 135 134
f 133 134 135
f 37 132 129
f 38 134 132
f 39 129 134
f 132 134 129
f 4 130 137
f 39 136 130
f 41 137 136
f 130 136 137
f 7 138 133
f 40 139 138
f 39 133 139
f 138 139 133
f 9 140 142
f 41 141 140
f 40 142 141
f 140 141 142
f 39 139 136
f 40 141 139
f 41 136 141
f 139 141 136
f 4 137 113
f 41 143 137
f 33 113 143
f 137 143 113
f 9 144 140
f 42 145 144
f 41 140 145
f 144 145 140
f 10 118 147
f 33 146 118
f 42 147 146
f 118 146 147
f 41 145 143
f 42 146 145
f 33 143 146
f 145 146 143
f 5 121 89
f 34 148 121
f 26 89 148
f 121 148 89
f 10 84 116
f 23 149 84
f 34 116 149
f 84 149 116
f 6 86 80
f 26 150 86
f 23 80 150
f 86 150 80
f 34 149 148
f 23 150 149
f 26 148 150
f 149 150 148
f 3 128 96
f 36 151 128
f 28 96 151
f 128 151 96
f 5 91 124
f 25 152 91
f 36 124 152
f 91 152 124
f 12 93 87
f 28 153 93
f 25 87 153
f 93 153 87
f 36 152 151
f 25 153 152
f 28 151 153
f 152 153 151
f 7 135 103
f 38 154 135
f 30 103 154
f 135 154 103
f 3 98 131
f 27 155 98
f 38 131 155
f 98 155 131
f 11 100 94
f 30 156 100
f 27 94 156
f 100 156 94
f 38 155 154
f 27 156 155
f 30 154 156
f 155 156 154
f 9 142 110
f 40 157 142
f 32 110 157
f 142 157 110
f 7 105 138
f 29 158 105
f 40 138 158
f 105 158 138
f 8 107 101
f 32 159 107
f 29 101 159
f 107 159 101
f 40 158 157
f 29 159 158
f 32 157 159
f 158 159 157
f 10 147 82
f 42 160 147
f 24 82 160
f 147 160 82
f 9 112 144
f 31 161 112
f 42 144 161
f 112 161 144
f 2 79 108
f 24 162 79
f 31 108 162
f 79 162 108
f 42 161 160
f 31 162 161
f 24 160 162
f 161 162 160
