# debris rock 2 (perturbed icosphere, seed=1274)
v -0.343054 0.739787 0.000000
v 0.212983 0.459293 0.000000
v -0.361036 -0.778565 0.000000
v 0.392080 -0.845509 0.000000
v 0.000000 -0.288807 0.649044
v 0.000000 0.529292 1.189494
v 0.000000 -0.457970 -1.029210
v 0.000000 0.530928 -1.193170
v 0.664615 0.000000 -0.760358
v 0.461092 0.000000 0.527516
v -0.608532 0.000000 -0.696196
v -0.453210 0.000000 0.518499
v -0.658455 0.542369 0.465572
v -0.381326 0.314098 1.142141
v -0.165509 0.577501 0.495729
v 0.256334 0.894412 0.767767
v 0.000000 0.967050 0.000000
v 0.197081 0.687664 -0.590294
v -0.197226 0.688170 -0.590728
v -0.408642 0.336598 -1.223957
v -0.653383 0.538191 -0.461986
v -0.558015 0.000000 0.000000
v 0.360378 0.296843 1.079399
v 0.644332 0.530736 0.455586
v -0.348663 -0.287194 1.044310
v 0.000000 0.000000 1.372457
v -0.595059 -0.490149 -0.420746
v -0.668142 -0.550348 0.472421
v 0.000000 0.000000 -1.358081
v -0.387589 -0.319257 -1.160899
v 0.510702 0.420665 -0.361100
v 0.264763 0.218085 -0.793014
v 0.469100 -0.386397 0.331685
v 0.245909 -0.202555 0.736543
v 0.232517 -0.811310 0.696432
v -0.216806 -0.756488 0.649372
v 0.000000 -0.820045 0.000000
v -0.220718 -0.770138 -0.661090
v 0.214647 -0.748957 -0.642907
v 0.260387 -0.214481 -0.779907
v 0.487011 -0.401151 -0.344349
v 0.498181 0.000000 0.000000
v -0.397923 0.536660 0.170537
v -0.411413 0.641984 0.551082
v -0.257045 0.681133 0.285010
v -0.337914 0.103039 0.618157
v -0.384675 0.316857 0.608190
v -0.634675 0.254833 0.590910
v -0.124998 0.719578 1.011349
v -0.286733 0.528119 0.858818
v -0.167518 0.372737 1.029314
v -0.085975 0.670793 0.257511
v -0.221504 1.039199 0.000000
v 0.109701 0.631515 0.887578
v 0.000000 0.709873 0.609358
v 0.181021 0.849270 0.000000
v 0.066831 0.521432 0.200172
v 0.322539 0.854683 0.357629
v -0.127375 0.993805 -0.381512
v -0.201031 0.532702 -0.222901
v 0.231407 0.613194 -0.256582
v 0.127306 0.993267 -0.381305
v -0.128404 0.739185 -1.038907
v 0.000000 0.707954 -0.607711
v 0.084785 0.488081 -0.685986
v -0.390908 0.609988 -0.523616
v -0.303332 0.409089 -0.129998
v -0.185554 0.412869 -1.140138
v -0.251968 0.464086 -0.754689
v -0.584386 0.234641 -0.544089
v -0.354069 0.291646 -0.559801
v -0.310074 0.094550 -0.567228
v -0.581464 0.478952 0.000000
v -0.429259 0.000000 -0.225733
v -0.763576 0.281278 -0.241450
v -0.602959 0.222112 0.190662
v -0.557626 0.000000 0.293236
v 0.351717 0.548833 0.471121
v 0.384754 0.518899 0.164893
v 0.156367 0.347926 0.960797
v 0.236985 0.436490 0.709812
v 0.456392 0.183249 0.424920
v 0.293011 0.241353 0.463265
v 0.499251 0.152235 0.913294
v -0.183725 0.151334 1.230483
v 0.000000 0.282612 1.381753
v -0.460559 -0.140437 0.842513
v -0.287849 0.000000 0.862160
v 0.000000 -0.181200 0.885930
v -0.165853 -0.136613 1.110787
v -0.150223 -0.334255 0.923045
v -0.514805 -0.189638 0.162786
v -0.571800 -0.229588 0.532371
v -0.712130 -0.285933 -0.663024
v -0.410757 -0.151310 -0.129885
v -0.467670 -0.630724 0.200428
v -0.516153 -0.425154 0.000000
v -0.433375 -0.584473 -0.185730
v -0.212872 0.000000 -0.637592
v -0.418833 -0.127713 -0.766183
v 0.000000 0.245784 -1.201693
v -0.174627 0.143840 -1.169551
v -0.188897 -0.420306 -1.160676
v -0.176709 -0.145555 -1.183497
v 0.000000 -0.161003 -0.787181
v 0.220798 0.406676 -0.661331
v 0.145745 0.324291 -0.895531
v 0.428032 0.577266 -0.183440
v 0.268849 0.419522 -0.360119
v 0.524157 0.159830 -0.958857
v 0.324271 0.267102 -0.512688
v 0.445684 0.178950 -0.414951
v 0.437765 -0.590392 0.187611
v 0.429287 -0.669875 0.575024
v 0.293284 -0.777161 0.325192
v 0.473406 -0.144354 0.866016
v 0.516058 -0.425077 0.815914
v 0.454318 -0.182417 0.422990
v 0.110654 -0.637001 0.895290
v 0.272437 -0.501788 0.815999
v 0.212236 -0.472238 1.304085
v 0.091769 -0.715996 0.274864
v 0.188745 -0.885509 0.000000
v -0.088241 -0.507975 0.713946
v 0.000000 -0.508421 0.436431
v -0.219477 -1.029691 0.000000
v -0.112902 -0.880884 0.338162
v -0.287207 -0.761056 0.318453
v 0.133586 -1.042261 -0.400114
v 0.195753 -0.518717 -0.217049
v -0.295414 -0.782804 -0.327553
v -0.109942 -0.857789 -0.329297
v 0.116241 -0.669161 -0.940489
v 0.000000 -0.504197 -0.432804
v -0.132742 -0.764154 -1.073999
v 0.355926 -0.555401 -0.476758
v 0.405135 -0.546386 -0.173627
v 0.132864 -0.295631 -0.816385
v 0.276569 -0.509398 -0.828374
v 0.553969 -0.222429 -0.515769
v 0.364336 -0.300104 -0.576034
v 0.452202 -0.137889 -0.827227
v 0.640775 -0.527806 0.000000
v 0.445310 0.000000 -0.234173
v 0.509572 -0.187711 -0.161132
v 0.675180 -0.248716 0.213499
v 0.500382 0.000000 0.263134
v 0.129713 -0.106845 0.868746
v 0.249765 0.000000 0.748093
v 0.181352 0.149380 1.214596
v -0.343185 -0.535520 0.459692
v -0.296697 -0.546471 0.888662
v -0.437502 -0.360370 0.691712
v -0.181512 -0.334318 -0.543662
v -0.479989 -0.748994 -0.642939
v -0.530190 -0.436717 -0.838257
v 0.406034 0.000000 -1.216147
v 0.106129 -0.087418 -0.710792
v 0.176908 0.145719 -1.184833
v 0.643689 0.237115 0.203541
v 0.706062 0.260092 -0.223264
v 0.380183 0.313157 0.000000
f 1 43 45
f 13 44 43
f 15 45 44
f 43 44 45
f 12 46 48
f 14 47 46
f 13 48 47
f 46 47 48
f 6 49 51
f 15 50 49
f 14 51 50
f 49 50 51
f 13 47 44
f 14 50 47
f 15 44 50
f 47 50 44
f 1 45 53
f 15 52 45
f 17 53 52
f 45 52 53
f 6 54 49
f 16 55 54
f 15 49 55
f 54 55 49
f 2 56 58
f 17 57 56
f 16 58 57
f 56 57 58
f 15 55 52
f 16 57 55
f 17 52 57
f 55 57 52
f 1 53 60
f 17 59 53
f 19 60 59
f 53 59 60
f 2 61 56
f 18 62 61
f 17 56 62
f 61 62 56
f 8 63 65
f 19 64 63
f 18 65 64
f 63 64 65
f 17 62 59
f 18 64 62
f 19 59 64
f 62 64 59
f 1 60 67
f 19 66 60
f 21 67 66
f 60 66 67
f 8 68 63
f 20 69 68
f 19 63 69
f 68 69 63
f 11 70 72
f 21 71 70
f 20 72 71
f 70 71 72
f 19 69 66
f 20 71 69
f 21 66 71
f 69 71 66
f 1 67 43
f 21 73 67
f 13 43 73
f 67 73 43
f 11 74 70
f 22 75 74
f 21 70 75
f 74 75 70
f 12 48 77
f 13 76 48
f 22 77 76
f 48 76 77
f 21 75 73
f 22 76 75
f 13 73 76
f 75 76 73
f 2 58 79
f 16 78 58
f 24 79 78
f 58 78 79
f 6 80 54
f 23 81 80
f 16 54 81
f 80 81 54
f 10 82 84
f 24 83 82
f 23 84 83
f 82 83 84
f 16 81 78
f 23 83 81
f 24 78 83
f 81 83 78
f 6 51 86
f 14 85 51
f 26 86 85
f 51 85 86
f 12 87 46
f 25 88 87
f 14 46 88
f 87 88 46
f 5 89 91
f 26 90 89
f 25 91 90
f 89 90 91
f 14 88 85
f 25 90 88
f 26 85 90
f 88 90 85
f 12 77 93
f 22 92 77
f 28 93 92
f 77 92 93
f 11 94 74
f 27 95 94
f 22 74 95
f 94 95 74
f 3 96 98
f 28 97 96
f 27 98 97
f 96 97 98
f 22 95 92
f 27 97 95
f 28 92 97
f 95 97 92
f 11 72 100
f 20 99 72
f 30 100 99
f 72 99 100
f 8 101 68
f 29 102 101
f 20 68 102
f 101 102 68
f 7 103 105
f 30 104 103
f 29 105 104
f 103 104 105
f 20 102 99
f 29 104 102
f 30 99 104
f 102 104 99
f 8 65 107
f 18 106 65
f 32 107 106
f 65 106 107
f 2 108 61
f 31 109 108
f 18 61 109
f 108 109 61
f 9 110 112
f 32 111 110
f 31 112 111
f 110 111 112
f 18 109 106
f 31 111 109
f 32 106 111
f 109 111 106
f 4 113 115
f 33 114 113
f 35 115 114
f 113 114 115
f 10 116 118
f 34 117 116
f 33 118 117
f 116 117 118
f 5 119 121
f 35 120 119
f 34 121 120
f 119 120 121
f 33 117 114
f 34 120 117
f 35 114 120
f 117 120 114
f 4 115 123
f 35 122 115
f 37 123 122
f 115 122 123
f 5 124 119
f 36 125 124
f 35 119 125
f 124 125 119
f 3 126 128
f 37 127 126
f 36 128 127
f 126 127 128
f 35 125 122
f 36 127 125
f 37 122 127
f 125 127 122
f 4 123 130
f 37 129 123
f 39 130 129
f 123 129 130
f 3 131 126
f 38 132 131
f 37 126 132
f 131 132 126
f 7 133 135
f 39 134 133
f 38 135 134
f 133 134 135
f 37 132 129
f 38 134 132
f 39 129 134
f 132 134 129
f 4 130 137
f 39 136 130
f 41 137 136
f 130 136 137
f 7 138 133
f 40 139 138
f 39 133 139
f 138 139 133
f 9 140 142
f 41 141 140
f 40 142 141
f 140 141 142
f 39 139 136
f 40 141 139
f 41 136 141
f 139 141 136
f 4 137 113
f 41 143 137
f 33 113 143
f 137 143 113
f 9 144 140
f 42 145 144
f 41 140 145
f 144 145 140
f 10 118 147
f 33 146 118
f 42 147 146
f 118 146 147
f 41 145 143
f 42 146 145
f 33 143 146
f 145 146 143
f 5 121 89
f 34 148 121
f 26 89 148
f 121 148 89
f 10 84 116
f 23 149 84
f 34 116 149
f 84 149 116
f 6 86 80
f 26 150 86
f 23 80 150
f 86 150 80
f 34 149 148
f 23 150 149
f 26 148 150
f 149 150 148
f 3 128 96
f 36 151 128
f 28 96 151
f 128 151 96
f 5 91 124
f 25 152 91
f 36 124 152
f 91 152 124
f 12 93 87
f 28 153 93
f 25 87 153
f 93 153 87
f 36 152 151
f 25 153 152
f 28 151 153
f 152 153 151
f 7 135 103
f 38 154 135
f 30 103 154
f 135 154 103
f 3 98 131
f 27 155 98
f 38 131 155
f 98 155 131
f 11 100 94
f 30 156 100
f 27 94 156
f 100 156 94
f 38 155 154
f 27 156 155
f 30 154 156
f 155 156 154
f 9 142 110
f 40 157 142
f 32 110 157
f 142 157 110
f 7 105 138
f 29 158 105
f 40 138 158
f 105 158 138
f 8 107 101
f 32 159 107
f 29 101 159
f 107 159 101
f 40 158 157
f 29 159 158
f 32 157 159
f 158 159 157
f 10 147 82
f 42 160 147
f 24 82 160
f 147 160 82
f 9 112 144
f 31 161 112
f 42 144 161
f 112 161 144
f 2 79 108
f 24 162 79
f 31 108 162
f 79 162 108
f 42 161 160
f 31 162 161
f 24 160 162
f 161 162 160
