# debris rock 1 (perturbed icosphere, seed=1137)
v -0.372122 0.475343 0.000000
v 0.610044 0.779260 0.000000
v -0.609204 -0.778188 0.000000
v 0.309348 -0.395156 0.000000
v 0.000000 -0.389871 1.051949
v 0.000000 0.442195 1.193128
v 0.000000 -0.301011 -0.812187
v 0.000000 0.413943 -1.116900
v 0.828441 0.000000 -0.674053
v 0.680575 0.000000 0.553743
v -0.972580 0.000000 -0.791330
v -0.581684 0.000000 0.473281
v -0.869476 0.424233 0.437222
v -0.313227 0.152829 0.667216
v -0.370619 0.766015 0.789469
v 0.366564 0.757633 0.780831
v 0.000000 0.674420 0.000000
v 0.183734 0.379751 -0.391378
v -0.369693 0.764101 -0.787497
v -0.444876 0.217063 -0.947647
v -0.978007 0.477187 -0.491798
v -0.826558 0.000000 0.000000
v 0.606281 0.295815 1.291461
v 0.578843 0.282428 0.291075
v -0.386900 -0.188775 0.824150
v 0.000000 0.000000 1.067957
v -0.734818 -0.358530 -0.369508
v -0.474705 -0.231617 0.238709
v 0.000000 0.000000 -0.821432
v -0.369867 -0.180465 -0.787867
v 0.955293 0.466104 -0.480376
v 0.591444 0.288576 -1.259856
v 0.718012 -0.350330 0.361057
v 0.372452 -0.181726 0.793373
v 0.265503 -0.548755 0.565557
v -0.201964 -0.417430 0.430211
v 0.000000 -0.840618 0.000000
v -0.273600 -0.565490 -0.582805
v 0.276625 -0.571743 -0.589249
v 0.496679 -0.242338 -1.057994
v 0.881347 -0.430025 -0.443191
v 0.660398 0.000000 0.000000
v -0.552267 0.441192 0.168326
v -0.586159 0.541801 0.558390
v -0.503852 0.790866 0.397317
v -0.578271 0.104449 0.752328
v -0.553415 0.270021 0.622272
v -0.604448 0.143761 0.400233
v -0.112198 0.382593 0.645605
v -0.441959 0.482185 0.941433
v -0.262900 0.346505 1.148844
v -0.102172 0.472200 0.217640
v -0.280564 0.779699 0.000000
v 0.187461 0.639237 1.078676
v 0.000000 0.710898 0.732665
v 0.248221 0.689817 0.000000
v 0.179239 0.828373 0.381803
v 0.500298 0.785288 0.394515
v -0.158011 0.730268 -0.336585
v -0.468007 0.734602 -0.369051
v 0.322035 0.505479 -0.253944
v 0.144209 0.666479 -0.307185
v -0.191992 0.654689 -1.104751
v 0.000000 0.617942 -0.636862
v 0.176509 0.601889 -1.015655
v -0.598412 0.553127 -0.570063
v -0.485312 0.387703 -0.147919
v -0.306333 0.403751 -1.338643
v -0.441990 0.482219 -0.941499
v -0.843804 0.200689 -0.558722
v -0.522167 0.254774 -0.587136
v -0.821958 0.148465 -1.069364
v -1.031222 0.503151 0.000000
v -0.601876 0.000000 -0.225095
v -1.028609 0.224446 -0.231318
v -0.720823 0.157286 0.162102
v -0.929216 0.000000 0.347517
v 0.618908 0.572071 0.589587
v 0.520082 0.415479 0.158516
v 0.206612 0.272317 0.902872
v 0.353976 0.386194 0.754018
v 0.828744 0.197108 0.548750
v 0.538465 0.262727 0.605462
v 0.619101 0.111824 0.805448
v -0.241541 0.117852 1.150491
v 0.000000 0.144127 0.846042
v -0.825114 -0.149035 1.073470
v -0.584944 0.000000 1.246010
v 0.000000 -0.193623 1.136591
v -0.180508 -0.088073 0.859782
v -0.198291 -0.261350 0.866511
v -0.659697 -0.143948 0.148356
v -0.858182 -0.204109 0.568242
v -0.838357 -0.199394 -0.555115
v -0.929497 -0.202819 -0.209030
v -0.543092 -0.433861 0.165530
v -0.691334 -0.337314 0.000000
v -0.520793 -0.416047 -0.158733
v -0.534240 0.000000 -1.138003
v -0.504617 -0.091146 -0.656505
v 0.000000 0.132532 -0.777981
v -0.171396 0.083627 -0.816380
v -0.217575 -0.286766 -0.950779
v -0.263723 -0.128675 -1.256145
v 0.000000 -0.182549 -1.071584
v 0.456156 0.497673 -0.971674
v 0.206892 0.272687 -0.904098
v 0.791696 0.632464 -0.241302
v 0.595208 0.550166 -0.567011
v 0.640588 0.115705 -0.833403
v 0.830598 0.405263 -0.933943
v 0.899959 0.214045 -0.595905
v 0.602447 -0.481279 0.183621
v 0.345561 -0.319410 0.329190
v 0.466773 -0.732665 0.368078
v 0.706393 -0.127591 0.919014
v 0.516665 -0.252090 0.580950
v 0.602962 -0.143408 0.399249
v 0.120562 -0.411114 0.693732
v 0.380349 -0.414967 0.810195
v 0.164172 -0.216380 0.717412
v 0.189551 -0.876035 0.403770
v 0.226909 -0.630589 0.000000
v -0.124060 -0.423041 0.713859
v 0.000000 -0.445715 0.459363
v -0.293242 -0.814932 0.000000
v -0.130581 -0.603494 0.278154
v -0.435185 -0.683084 0.343169
v 0.097425 -0.450260 -0.207528
v 0.443436 -0.696035 -0.349676
v -0.497001 -0.780113 -0.391915
v -0.116664 -0.539178 -0.248511
v 0.180737 -0.616309 -1.039987
v 0.000000 -0.588916 -0.606948
v -0.163354 -0.557032 -0.939961
v 0.378250 -0.349626 -0.360331
v 0.643899 -0.514394 -0.196255
v 0.296252 -0.390464 -1.294591
v 0.436635 -0.476376 -0.930092
v 0.873429 -0.207735 -0.578338
v 0.497270 -0.242627 -0.559142
v 0.643982 -0.116318 -0.837819
v 0.823778 -0.401936 0.000000
v 0.930154 0.000000 -0.347867
v 0.919159 -0.200564 -0.206705
v 0.621410 -0.135594 0.139746
v 0.575591 0.000000 0.215265
v 0.230352 -0.112393 1.097198
v 0.610966 0.000000 1.301442
v 0.213758 0.104296 1.018157
v -0.649829 -0.600652 0.619044
v -0.302398 -0.329921 0.644149
v -0.560894 -0.273670 0.630682
v -0.389962 -0.425455 -0.830673
v -0.522681 -0.483127 -0.497920
v -0.830783 -0.405354 -0.934151
v 0.621495 0.000000 -1.323870
v 0.315786 -0.154078 -1.504131
v 0.154862 0.075560 -0.737629
v 0.621185 0.135545 0.139695
v 1.081896 0.236073 -0.243302
v 0.733895 0.358080 0.000000
f 1 43 45
f 13 44 43
f 15 45 44
f 43 44 45
f 12 46 48
f 14 47 46
f 13 48 47
f 46 47 48
f 6 49 51
f 15 50 49
f 14 51 50
f 49 50 51
f 13 47 44
f 14 50 47
f 15 44 50
f 47 50 44
f 1 45 53
f 15 52 45
f 17 53 52
f 45 52 53
f 6 54 49
f 16 55 54
f 15 49 55
f 54 55 49
f 2 56 58
f 17 57 56
f 16 58 57
f 56 57 58
f 15 55 52
f 16 57 55
f 17 52 57
f 55 57 52
f 1 53 60
f 17 59 53
f 19 60 59
f 53 59 60
f 2 61 56
f 18 62 61
f 17 56 62
f 61 62 56
f 8 63 65
f 19 64 63
f 18 65 64
f 63 64 65
f 17 62 59
f 18 64 62
f 19 59 64
f 62 64 59
f 1 60 67
f 19 66 60
f 21 67 66
f 60 66 67
f 8 68 63
f 20 69 68
f 19 63 69
f 68 69 63
f 11 70 72
f 21 71 70
f 20 72 71
f 70 71 72
f 19 69 66
f 20 71 69
f 21 66 71
f 69 71 66
f 1 67 43
f 21 73 67
f 13 43 73
f 67 73 43
f 11 74 70
f 22 75 74
f 21 70 75
f 74 75 70
f 12 48 77
f 13 76 48
f 22 77 76
f 48 76 77
f 21 75 73
f 22 76 75
f 13 73 76
f 75 76 73
f 2 58 79
f 16 78 58
f 24 79 78
f 58 78 79
f 6 80 54
f 23 81 80
f 16 54 81
f 80 81 54
f 10 82 84
f 24 83 82
f 23 84 83
f 82 83 84
f 16 81 78
f 23 83 81
f 24 78 83
f 81 83 78
f 6 51 86
f 14 85 51
f 26 86 85
f 51 85 86
f 12 87 46
f 25 88 87
f 14 46 88
f 87 88 46
f 5 89 91
f 26 90 89
f 25 91 90
f 89 90 91
f 14 88 85
f 25 90 88
f 26 85 90
f 88 90 85
f 12 77 93
f 22 92 77
f 28 93 92
f 77 92 93
f 11 94 74
f 27 95 94
f 22 74 95
f 94 95 74
f 3 96 98
f 28 97 96
f 27 98 97
f 96 97 98
f 22 95 92
f 27 97 95
f 28 92 97
f 95 97 92
f 11 72 100
f 20 99 72
f 30 100 99
f 72 99 100
f 8 101 68
f 29 102 101
f 20 68 102
f 101 102 68
f 7 103 105
f 30 104 103
f 29 105 104
f 103 104 105
f 20 102 99
f 29 104 102
f 30 99 104
f 102 104 99
f 8 65 107
f 18 106 65
f 32 107 106
f 65 106 107
f 2 108 61
f 31 109 108
f 18 61 109
f 108 109 61
f 9 110 112
f 32 111 110
f 31 112 111
f 110 111 112
f 18 109 106
f 31 111 109
f 32 106 111
f 109 111 106
f 4 113 115
f 33 114 113
f 35 115 114
f 113 114 115
f 10 116 118
f 34 117 116
f 33 118 117
f 116 117 118
f 5 119 121
f 35 120 119
f 34 121 120
f 119 120 121
f 33 117 114
f 34 120 117
f 35 114 120
f 117 120 114
f 4 115 123
f 35 122 115
f 37 123 122
f 115 122 123
f 5 124 119
f 36 125 124
f 35 119 125
f 124 125 119
f 3 126 128
f 37 127 126
f 36 128 127
f 126 127 128
f 35 125 122
f 36 127 125
f 37 122 127
f 125 127 122
f 4 123 130
f 37 129 123
f 39 130 129
f 123 129 130
f 3 131 126
f 38 132 131
f 37 126 132
f 131 132 126
f 7 133 135
f 39 134 133
f 38 135 134
f 133 134 135
f 37 132 129
f 38 134 132
f 39 129 134
f 132 134 129
f 4 130 137
f 39 136 130
f 41 137 136
f 130 136 137
f 7 138 133
f 40 139 138
f 39 133 139
f 138 139 133
f 9 140 142
f 41 141 140
f 40 142 141
f 140 141 142
f 39 139 136
f 40 141 139
f 41 136 141
f 139 141 136
f 4 137 113
f 41 143 137
f 33 113 143
f 137 143 113
f 9 144 140
f 42 145 144
f 41 140 145
f 144 145 140
f 10 118 147
f 33 146 118
f 42 147 146
f 118 146 147
f 41 145 143
f 42 146 145
f 33 143 146
f 145 146 143
f 5 121 89
f 34 148 121
f 26 89 148
f 121 148 89
f 10 84 116
f 23 149 84
f 34 116 149
f 84 149 116
f 6 86 80
f 26 150 86
f 23 80 150
f 86 150 80
f 34 149 148
f 23 150 149
f 26 148 150
f 149 150 148
f 3 128 96
f 36 151 128
f 28 96 151
f 128 151 96
f 5 91 124
f 25 152 91
f 36 124 152
f 91 152 124
f 12 93 87
f 28 153 93
f 25 87 153
f 93 153 87
f 36 152 151
f 25 153 152
f 28 151 153
f 152 153 151
f 7 135 103
f 38 154 135
f 30 103 154
f 135 154 103
f 3 98 131
f 27 155 98
f 38 131 155
f 98 155 131
f 11 100 94
f 30 156 100
f 27 94 156
f 100 156 94
f 38 155 154
f 27 156 155
f 30 154 156
f 155 156 154
f 9 142 110
f 40 157 142
f 32 110 157
f 142 157 110
f 7 105 138
f 29 158 105
f 40 138 158
f 105 158 138
f 8 107 101
f 32 159 107
f 29 101 159
f 107 159 101
f 40 158 157
f 29 159 158
f 32 157 159
f 158 159 157
f 10 147 82
f 42 160 147
f 24 82 160
f 147 160 82
f 9 112 144
f 31 161 112
f 42 144 161
f 112 161 144
f 2 79 108
f 24 162 79
f 31 108 162
f 79 162 108
f 42 161 160
f 31 162 161
f 24 160 162
f 161 162 160
