# debris rock 0 (perturbed icosphere, seed=1000)
v -0.602430 0.892695 0.000000
v 0.656460 0.972758 0.000000
v -0.687850 -1.019273 0.000000
v 0.896391 -1.328293 0.000000
v 0.000000 -0.455861 0.377770
v 0.000000 0.688736 0.570752
v 0.000000 -0.556563 -0.461221
v 0.000000 0.610207 -0.505676
v 0.860693 0.000000 -0.249503
v 1.212996 0.000000 0.351631
v -0.879442 0.000000 -0.254939
v -1.054688 0.000000 0.305740
v -0.701170 0.396867 0.125621
v -0.850721 0.481514 0.645641
v -0.391264 0.938112 0.296944
v 0.384119 0.920978 0.291520
v 0.000000 1.345186 0.000000
v 0.371440 0.890580 -0.281898
v -0.501935 1.203461 -0.380935
v -0.425555 0.240867 -0.322968
v -1.274656 0.721463 -0.228367
v -1.249186 0.000000 0.000000
v 0.777933 0.440315 0.590399
v 1.355736 0.767355 0.242893
v -0.854655 -0.483740 0.648626
v 0.000000 0.000000 0.463331
v -1.177107 -0.666250 -0.210890
v -0.750456 -0.424763 0.134452
v 0.000000 0.000000 -0.456655
v -0.456656 -0.258470 -0.346572
v 0.898899 0.508783 -0.161047
v 0.422535 0.239157 -0.320676
v 1.289516 -0.729874 0.231029
v 0.545247 -0.308613 0.413806
v 0.472104 -1.131936 0.358295
v -0.408014 -0.978272 0.309656
v 0.000000 -0.919520 0.000000
v -0.337264 -0.808637 -0.255960
v 0.344838 -0.826799 -0.261709
v 0.709584 -0.401629 -0.538526
v 0.839190 -0.474987 -0.150349
v 1.384145 0.000000 0.000000
v -1.131451 1.048548 0.122867
v -0.944974 1.013256 0.320729
v -0.474236 0.863513 0.133237
v -0.870527 0.182402 0.403510
v -0.869823 0.492325 0.348463
v -0.932537 0.257290 0.219997
v -0.180606 0.714429 0.370262
v -0.727452 0.920684 0.552087
v -0.218559 0.334167 0.340280
v -0.155646 0.834462 0.118125
v -0.386193 1.245014 0.000000
v 0.144132 0.570147 0.295486
v 0.000000 0.850279 0.269142
v 0.420759 1.356448 0.000000
v 0.267309 1.433119 0.202869
v 0.503947 0.917614 0.141584
v -0.164707 0.883044 -0.125002
v -0.701687 1.277669 -0.197140
v 0.605661 1.102819 -0.170161
v 0.208030 1.115307 -0.157881
v -0.180877 0.715501 -0.370818
v 0.000000 0.888815 -0.281340
v 0.175358 0.693667 -0.359502
v -0.890296 0.954627 -0.302171
v -0.872833 0.808879 -0.094783
v -0.262617 0.401530 -0.408875
v -0.684599 0.866448 -0.519565
v -1.298768 0.358335 -0.306395
v -1.105241 0.625573 -0.442774
v -1.168148 0.244763 -0.541465
v -0.890129 0.503819 0.000000
v -1.566292 0.000000 -0.208703
v -1.441004 0.364755 -0.115457
v -1.142286 0.289142 0.091523
v -1.077085 0.000000 0.143518
v 0.783031 0.839612 0.265765
v 0.942555 0.873493 0.102354
v 0.254262 0.388755 0.395866
v 0.538043 0.680963 0.408339
v 1.448290 0.399589 0.341669
v 0.859492 0.486478 0.344324
v 0.831875 0.174303 0.385594
v -0.434210 0.245766 0.736865
v 0.000000 0.428366 0.772295
v -1.172465 -0.245668 0.543466
v -0.458897 0.000000 0.348272
v 0.000000 -0.400316 0.721724
v -0.265507 -0.150278 0.450572
v -0.295632 -0.452008 0.460276
v -1.540139 -0.389849 0.123400
v -0.792171 -0.218563 0.186883
v -0.819050 -0.225979 -0.193224
v -1.017285 -0.257501 -0.081508
v -0.705879 -0.654159 0.076653
v -0.965393 -0.546419 0.000000
v -1.026772 -0.951539 -0.111499
v -0.733497 0.000000 -0.556675
v -0.682569 -0.143019 -0.316387
v 0.000000 0.379245 -0.683735
v -0.435404 0.246441 -0.738891
v -0.353140 -0.539934 -0.549811
v -0.257865 -0.145953 -0.437604
v 0.000000 -0.317143 -0.571771
v 0.626326 0.792696 -0.475339
v 0.266022 0.406735 -0.414175
v 0.955773 0.885742 -0.103790
v 0.814059 0.872881 -0.276296
v 0.731995 0.153376 -0.339297
v 0.659995 0.373561 -0.264403
v 1.311909 0.361961 -0.309495
v 0.905172 -0.838849 0.098295
v 0.718590 -0.770514 0.243893
v 0.545656 -0.993560 0.153303
v 1.075106 -0.225268 0.498337
v 1.086353 -0.614883 0.435208
v 1.029629 -0.284079 0.242902
v 0.244550 -0.967373 0.501354
v 0.354329 -0.448449 0.268912
v 0.419479 -0.641363 0.653096
v 0.139489 -0.747843 0.105863
v 0.466770 -1.504778 0.000000
v -0.276294 -1.092944 0.566433
v 0.000000 -1.068971 0.338365
v -0.444167 -1.431911 0.000000
v -0.233134 -1.249900 0.176933
v -0.386882 -0.704454 0.108695
v 0.236619 -1.268585 -0.179578
v 0.747919 -1.361850 -0.210129
v -0.638783 -1.163130 -0.179467
v -0.166644 -0.893425 -0.126471
v 0.193984 -0.767347 -0.397688
v 0.000000 -1.250208 -0.395732
v -0.247478 -0.978955 -0.507357
v 0.600564 -0.643959 -0.203834
v 1.085121 -1.005613 -0.117836
v 0.294459 -0.450214 -0.458450
v 0.356493 -0.451187 -0.270554
v 1.436862 -0.396436 -0.338973
v 0.929812 -0.526280 -0.372495
v 1.048651 -0.219725 -0.486075
v 0.812441 -0.459847 0.000000
v 1.267567 0.000000 -0.168899
v 1.575041 -0.398683 -0.126197
v 0.917611 -0.232271 0.073521
v 1.634634 0.000000 0.217809
v 0.364099 -0.206082 0.617886
v 0.777390 0.000000 0.589987
v 0.380810 0.215541 0.646244
v -0.889566 -0.953844 0.301923
v -0.427720 -0.541334 0.324611
v -0.942296 -0.533346 0.377497
v -0.442881 -0.560523 -0.336117
v -0.544865 -0.584236 -0.184930
v -0.763903 -0.432374 -0.306030
v 0.864241 0.000000 -0.655901
v 0.439370 -0.248686 -0.745622
v 0.332334 0.188103 -0.563980
v 1.313906 0.332584 0.105274
v 0.943727 0.238882 -0.075614
v 0.927047 0.524715 0.000000
f 1 43 45
f 13 44 43
f 15 45 44
f 43 44 45
f 12 46 48
f 14 47 46
f 13 48 47
f 46 47 48
f 6 49 51
f 15 50 49
f 14 51 50
f 49 50 51
f 13 47 44
f 14 50 47
f 15 44 50
f 47 50 44
f 1 45 53
f 15 52 45
f 17 53 52
f 45 52 53
f 6 54 49
f 16 55 54
f 15 49 55
f 54 55 49
f 2 56 58
f 17 57 56
f 16 58 57
f 56 57 58
f 15 55 52
f 16 57 55
f 17 52 57
f 55 57 52
f 1 53 60
f 17 59 53
f 19 60 59
f 53 59 60
f 2 61 56
f 18 62 61
f 17 56 62
f 61 62 56
f 8 63 65
f 19 64 63
f 18 65 64
f 63 64 65
f 17 62 59
f 18 64 62
f 19 59 64
f 62 64 59
f 1 60 67
f 19 66 60
f 21 67 66
f 60 66 67
f 8 68 63
f 20 69 68
f 19 63 69
f 68 69 63
f 11 70 72
f 21 71 70
f 20 72 71
f 70 71 72
f 19 69 66
f 20 71 69
f 21 66 71
f 69 71 66
f 1 67 43
f 21 73 67
f 13 43 73
f 67 73 43
f 11 74 70
f 22 75 74
f 21 70 75
f 74 75 70
f 12 48 77
f 13 76 48
f 22 77 76
f 48 76 77
f 21 75 73
f 22 76 75
f 13 73 76
f 75 76 73
f 2 58 79
f 16 78 58
f 24 79 78
f 58 78 79
f 6 80 54
f 23 81 80
f 16 54 81
f 80 81 54
f 10 82 84
f 24 83 82
f 23 84 83
f 82 83 84
f 16 81 78
f 23 83 81
f 24 78 83
f 81 83 78
f 6 51 86
f 14 85 51
f 26 86 85
f 51 85 86
f 12 87 46
f 25 88 87
f 14 46 88
f 87 88 46
f 5 89 91
f 26 90 89
f 25 91 90
f 89 90 91
f 14 88 85
f 25 90 88
f 26 85 90
f 88 90 85
f 12 77 93
f 22 92 77
f 28 93 92
f 77 92 93
f 11 94 74
f 27 95 94
f 22 74 95
f 94 95 74
f 3 96 98
f 28 97 96
f 27 98 97
f 96 97 98
f 22 95 92
f 27 97 95
f 28 92 97
f 95 97 92
f 11 72 100
f 20 99 72
f 30 100 99
f 72 99 100
f 8 101 68
f 29 102 101
f 20 68 102
f 101 102 68
f 7 103 105
f 30 104 103
f 29 105 104
f 103 104 105
f 20 102 99
f 29 104 102
f 30 99 104
f 102 104 99
f 8 65 107
f 18 106 65
f 32 107 106
f 65 106 107
f 2 108 61
f 31 109 108
f 18 61 109
f 108 109 61
f 9 110 112
f 32 111 110
f 31 112 111
f 110 111 112
f 18 109 106
f 31 111 109
f 32 106 111
f 109 111 106
f 4 113 115
f 33 114 113
f 35 115 114
f 113 114 115
f 10 116 118
f 34 117 116
f 33 118 117
f 116 117 118
f 5 119 121
f 35 120 119
f 34 121 120
f 119 120 121
f 33 117 114
f 34 120 117
f 35 114 120
f 117 120 114
f 4 115 123
f 35 122 115
f 37 123 122
f 115 122 123
f 5 124 119
f 36 125 124
f 35 119 125
f 124 125 119
f 3 126 128
f 37 127 126
f 36 128 127
f 126 127 128
f 35 125 122
f 36 127 125
f 37 122 127
f 125 127 122
f 4 123 130
f 37 129 123
f 39 130 129
f 123 129 130
f 3 131 126
f 38 132 131
f 37 126 132
f 131 132 126
f 7 133 135
f 39 134 133
f 38 135 134
f 133 134 135
f 37 132 129
f 38 134 132
f 39 129 134
f 132 134 129
f 4 130 137
f 39 136 130
f 41 137 136
f 130 136 137
f 7 138 133
f 40 139 138
f 39 133 139
f 138 139 133
f 9 140 142
f 41 141 140
f 40 142 141
f 140 141 142
f 39 139 136
f 40 141 139
f 41 136 141
f 139 141 136
f 4 137 113
f 41 143 137
f 33 113 143
f 137 143 113
f 9 144 140
f 42 145 144
f 41 140 145
f 144 145 140
f 10 118 147
f 33 146 118
f 42 147 146
f 118 146 147
f 41 145 143
f 42 146 145
f 33 143 146
f 145 146 143
f 5 121 89
f 34 148 121
f 26 89 148
f 121 148 89
f 10 84 116
f 23 149 84
f 34 116 149
f 84 149 116
f 6 86 80
f 26 150 86
f 23 80 150
f 86 150 80
f 34 149 148
f 23 150 149
f 26 148 150
f 149 150 148
f 3 128 96
f 36 151 128
f 28 96 151
f 128 151 96
f 5 91 124
f 25 152 91
f 36 124 152
f 91 152 124
f 12 93 87
f 28 153 93
f 25 87 153
f 93 153 87
f 36 152 151
f 25 153 152
f 28 151 153
f 152 153 151
f 7 135 103
f 38 154 135
f 30 103 154
f 135 154 103
f 3 98 131
f 27 155 98
f 38 131 155
f 98 155 131
f 11 100 94
f 30 156 100
f 27 94 156
f 100 156 94
f 38 155 154
f 27 156 155
f 30 154 156
f 155 156 154
f 9 142 110
f 40 157 142
f 32 110 157
f 142 157 110
f 7 105 138
f 29 158 105
f 40 138 158
f 105 158 138
f 8 107 101
f 32 159 107
f 29 101 159
f 107 159 101
f 40 158 157
f 29 159 158
f 32 157 159
f 158 159 157
f 10 147 82
f 42 160 147
f 24 82 160
f 147 160 82
f 9 112 144
f 31 161 112
f 42 144 161
f 112 161 144
f 2 79 108
f 24 162 79
f 31 108 162
f 79 162 108
f 42 161 160
f 31 162 161
f 24 160 162
f 161 162 160
