# debris rock 4 (perturbed icosphere, seed=1548)
v -0.383326 1.045003 0.000000
v 0.359645 0.980444 0.000000
v -0.252152 -0.687404 0.000000
v 0.459337 -1.252219 0.000000
v 0.000000 -0.670746 0.641766
v 0.000000 0.739384 0.707438
v 0.000000 -0.518468 -0.496067
v 0.000000 0.649171 -0.621123
v 0.654089 0.000000 -0.402756
v 0.756446 0.000000 0.465782
v -0.533106 0.000000 -0.328261
v -0.605566 0.000000 0.372878
v -0.526980 0.548742 0.200545
v -0.272780 0.284045 0.439738
v -0.156302 0.689449 0.251968
v 0.248270 1.095117 0.400225
v 0.000000 1.253565 0.000000
v 0.149570 0.659751 -0.241115
v -0.271380 1.197056 -0.437480
v -0.223326 0.232549 -0.360014
v -0.589915 0.614276 -0.224495
v -0.484547 0.000000 0.000000
v 0.241262 0.251225 0.388928
v 0.352382 0.366934 0.134101
v -0.246041 -0.256201 0.396632
v 0.000000 0.000000 0.797344
v -0.569693 -0.593219 -0.216800
v -0.611218 -0.636459 0.232602
v 0.000000 0.000000 -0.854297
v -0.364126 -0.379163 -0.586992
v 0.467783 0.487101 -0.178017
v 0.215616 0.224520 -0.347585
v 0.360552 -0.375442 0.137210
v 0.260271 -0.271019 0.419572
v 0.174070 -0.767824 0.280611
v -0.173177 -0.763884 0.279171
v 0.000000 -0.779104 0.000000
v -0.155416 -0.685542 -0.250540
v 0.271222 -1.196361 -0.437226
v 0.313337 -0.326276 -0.505117
v 0.465251 -0.484464 -0.177054
v 0.500721 0.000000 0.000000
v -0.508971 0.867758 0.117400
v -0.510927 1.007884 0.368344
v -0.258679 0.866541 0.154372
v -0.339320 0.130801 0.334086
v -0.499380 0.520002 0.424946
v -0.629346 0.319448 0.315367
v -0.097626 0.710464 0.425125
v -0.203274 0.473305 0.327689
v -0.204502 0.575235 0.676304
v -0.075570 0.745369 0.121823
v -0.189256 1.122464 0.000000
v 0.101100 0.735746 0.440253
v 0.000000 0.668899 0.244458
v 0.210572 1.248889 0.000000
v 0.110777 1.092625 0.178579
v 0.251413 0.842200 0.150036
v -0.125690 1.239718 -0.202619
v -0.273104 0.914862 -0.162980
v 0.331892 1.111793 -0.198063
v 0.123024 1.213417 -0.198321
v -0.112633 0.819683 -0.490479
v 0.000000 0.931193 -0.340316
v 0.120123 0.874187 -0.523093
v -0.460770 0.908942 -0.332185
v -0.391164 0.666905 -0.090226
v -0.191441 0.538497 -0.633111
v -0.194758 0.453477 -0.313962
v -0.631059 0.320318 -0.316226
v -0.465367 0.484585 -0.396003
v -0.525207 0.202457 -0.517106
v -0.396161 0.412520 0.000000
v -0.427205 0.000000 -0.120912
v -0.634881 0.295653 -0.108050
v -0.542204 0.252494 0.092277
v -0.500669 0.000000 0.141704
v 0.418358 0.825279 0.301609
v 0.435692 0.742822 0.100497
v 0.129301 0.363705 0.427608
v 0.219274 0.510559 0.353482
v 0.455775 0.231346 0.228390
v 0.515988 0.537296 0.439078
v 0.379844 0.146422 0.373985
v -0.211282 0.220007 0.761601
v 0.000000 0.338417 0.704441
v -0.568770 -0.219249 0.559997
v -0.228733 0.000000 0.368730
v 0.000000 -0.347110 0.722534
v -0.196945 -0.205078 0.709921
v -0.183476 -0.516092 0.606769
v -0.440739 -0.205244 0.075009
v -0.588305 -0.298616 0.294801
v -0.387538 -0.196709 -0.194196
v -0.556407 -0.259109 -0.094695
v -0.459627 -0.783631 0.106019
v -0.512609 -0.533778 0.000000
v -0.469922 -0.801181 -0.108393
v -0.314640 0.000000 -0.507217
v -0.585046 -0.225523 -0.576022
v 0.000000 0.381378 -0.793866
v -0.220523 0.229629 -0.794912
v -0.217759 -0.612525 -0.720146
v -0.180047 -0.187483 -0.649011
v 0.000000 -0.405796 -0.844695
v 0.219558 0.511220 -0.353940
v 0.207555 0.583823 -0.686401
v 0.429963 0.733054 -0.099176
v 0.349733 0.689904 -0.252134
v 0.413790 0.159507 -0.407407
v 0.418098 0.435364 -0.355779
v 0.502699 0.255164 -0.251904
v 0.559770 -0.954366 0.129117
v 0.317484 -0.626288 0.228885
v 0.282299 -0.945664 0.168468
v 0.404603 -0.155966 0.398362
v 0.366912 -0.382064 0.312223
v 0.387794 -0.196839 0.194325
v 0.079822 -0.580902 0.347598
v 0.350979 -0.817223 0.565799
v 0.161968 -0.455593 0.535641
v 0.093375 -0.920989 0.150526
v 0.185870 -1.102384 0.000000
v -0.139404 -1.014503 0.607055
v 0.000000 -1.191175 0.435330
v -0.186176 -1.104196 0.000000
v -0.140864 -1.389387 0.227081
v -0.311516 -1.043536 0.185903
v 0.095174 -0.938727 -0.153426
v 0.287204 -0.962094 -0.171395
v -0.238101 -0.797608 -0.142092
v -0.128570 -1.268128 -0.207263
v 0.098503 -0.716850 -0.428946
v 0.000000 -1.070306 -0.391157
v -0.102394 -0.745164 -0.445889
v 0.259773 -0.512444 -0.187279
v 0.567262 -0.967139 -0.130846
v 0.203904 -0.573551 -0.674324
v 0.365778 -0.851680 -0.589654
v 0.631144 -0.320361 -0.316268
v 0.534983 -0.557076 -0.455242
v 0.552200 -0.212862 -0.543683
v 0.506299 -0.527207 0.000000
v 0.461750 0.000000 -0.130689
v 0.776487 -0.361596 -0.132150
v 0.582864 -0.271429 0.099197
v 0.806586 0.000000 0.228288
v 0.215705 -0.224613 0.777546
v 0.237515 0.000000 0.382888
v 0.174721 0.181936 0.629811
v -0.357945 -0.706104 0.258055
v -0.310303 -0.722512 0.500226
v -0.442597 -0.460874 0.376626
v -0.288529 -0.671813 -0.465125
v -0.493812 -0.974123 -0.356006
v -0.361303 -0.376223 -0.307450
v 0.254663 0.000000 -0.410531
v 0.176271 -0.183551 -0.635400
v 0.230063 0.239563 -0.829300
v 0.771623 0.359331 0.131322
v 0.539222 0.251106 -0.091770
v 0.710956 0.740316 0.000000
f 1 43 45
f 13 44 43
f 15 45 44
f 43 44 45
f 12 46 48
f 14 47 46
f 13 48 47
f 46 47 48
f 6 49 51
f 15 50 49
f 14 51 50
f 49 50 51
f 13 47 44
f 14 50 47
f 15 44 50
f 47 50 44
f 1 45 53
f 15 52 45
f 17 53 52
f 45 52 53
f 6 54 49
f 16 55 54
f 15 49 55
f 54 55 49
f 2 56 58
f 17 57 56
f 16 58 57
f 56 57 58
f 15 55 52
f 16 57 55
f 17 52 57
f 55 57 52
f 1 53 60
f 17 59 53
f 19 60 59
f 53 59 60
f 2 61 56
f 18 62 61
f 17 56 62
f 61 62 56
f 8 63 65
f 19 64 63
f 18 65 64
f 63 64 65
f 17 62 59
f 18 64 62
f 19 59 64
f 62 64 59
f 1 60 67
f 19 66 60
f 21 67 66
f 60 66 67
f 8 68 63
f 20 69 68
f 19 63 69
f 68 69 63
f 11 70 72
f 21 71 70
f 20 72 71
f 70 71 72
f 19 69 66
f 20 71 69
f 21 66 71
f 69 71 66
f 1 67 43
f 21 73 67
f 13 43 73
f 67 73 43
f 11 74 70
f 22 75 74
f 21 70 75
f 74 75 70
f 12 48 77
f 13 76 48
f 22 77 76
f 48 76 77
f 21 75 73
f 22 76 75
f 13 73 76
f 75 76 73
f 2 58 79
f 16 78 58
f 24 79 78
f 58 78 79
f 6 80 54
f 23 81 80
f 16 54 81
f 80 81 54
f 10 82 84
f 24 83 82
f 23 84 83
f 82 83 84
f 16 81 78
f 23 83 81
f 24 78 83
f 81 83 78
f 6 51 86
f 14 85 51
f 26 86 85
f 51 85 86
f 12 87 46
f 25 88 87
f 14 46 88
f 87 88 46
f 5 89 91
f 26 90 89
f 25 91 90
f 89 90 91
f 14 88 85
f 25 90 88
f 26 85 90
f 88 90 85
f 12 77 93
f 22 92 77
f 28 93 92
f 77 92 93
f 11 94 74
f 27 95 94
f 22 74 95
f 94 95 74
f 3 96 98
f 28 97 96
f 27 98 97
f 96 97 98
f 22 95 92
f 27 97 95
f 28 92 97
f 95 97 92
f 11 72 100
f 20 99 72
f 30 100 99
f 72 99 100
f 8 101 68
f 29 102 101
f 20 68 102
f 101 102 68
f 7 103 105
f 30 104 103
f 29 105 104
f 103 104 105
f 20 102 99
f 29 104 102
f 30 99 104
f 102 104 99
f 8 65 107
f 18 106 65
f 32 107 106
f 65 106 107
f 2 108 61
f 31 109 108
f 18 61 109
f 108 109 61
f 9 110 112
f 32 111 110
f 31 112 111
f 110 111 112
f 18 109 106
f 31 111 109
f 32 106 111
f 109 111 106
f 4 113 115
f 33 114 113
f 35 115 114
f 113 114 115
f 10 116 118
f 34 117 116
f 33 118 117
f 116 117 118
f 5 119 121
f 35 120 119
f 34 121 120
f 119 120 121
f 33 117 114
f 34 120 117
f 35 114 120
f 117 120 114
f 4 115 123
f 35 122 115
f 37 123 122
f 115 122 123
f 5 124 119
f 36 125 124
f 35 119 125
f 124 125 119
f 3 126 128
f 37 127 126
f 36 128 127
f 126 127 128
f 35 125 122
f 36 127 125
f 37 122 127
f 125 127 122
f 4 123 130
f 37 129 123
f 39 130 129
f 123 129 130
f 3 131 126
f 38 132 131
f 37 126 132
f 131 132 126
f 7 133 135
f 39 134 133
f 38 135 134
f 133 134 135
f 37 132 129
f 38 134 132
f 39 129 134
f 132 134 129
f 4 130 137
f 39 136 130
f 41 137 136
f 130 136 137
f 7 138 133
f 40 139 138
f 39 133 139
f 138 139 133
f 9 140 142
f 41 141 140
f 40 142 141
f 140 141 142
f 39 139 136
f 40 141 139
f 41 136 141
f 139 141 136
f 4 137 113
f 41 143 137
f 33 113 143
f 137 143 113
f 9 144 140
f 42 145 144
f 41 140 145
f 144 145 140
f 10 118 147
f 33 146 118
f 42 147 146
f 118 146 147
f 41 145 143
f 42 146 145
f 33 143 146
f 145 146 143
f 5 121 89
f 34 148 121
f 26 89 148
f 121 148 89
f 10 84 116
f 23 149 84
f 34 116 149
f 84 149 116
f 6 86 80
f 26 150 86
f 23 80 150
f 86 150 80
f 34 149 148
f 23 150 149
f 26 148 150
f 149 150 148
f 3 128 96
f 36 151 128
f 28 96 151
f 128 151 96
f 5 91 124
f 25 152 91
f 36 124 152
f 91 152 124
f 12 93 87
f 28 153 93
f 25 87 153
f 93 153 87
f 36 152 151
f 25 153 152
f 28 151 153
f 152 153 151
f 7 135 103
f 38 154 135
f 30 103 154
f 135 154 103
f 3 98 131
f 27 155 98
f 38 131 155
f 98 155 131
f 11 100 94
f 30 156 100
f 27 94 156
f 100 156 94
f 38 155 154
f 27 156 155
f 30 154 156
f 155 156 154
f 9 142 110
f 40 157 142
f 32 110 157
f 142 157 110
f 7 105 138
f 29 158 105
f 40 138 158
f 105 158 138
f 8 107 101
f 32 159 107
f 29 101 159
f 107 159 101
f 40 158 157
f 29 159 158
f 32 157 159
f 158 159 157
f 10 147 82
f 42 160 147
f 24 82 160
f 147 160 82
f 9 112 144
f 31 161 112
f 42 144 161
f 112 161 144
f 2 79 108
f 24 162 79
f 31 108 162
f 79 162 108
f 42 161 160
f 31 162 161
f 24 160 162
f 161 162 160
