# inverted sky dome for deep-space backdrop
v -26286.555606 42532.540418 0.000000
v 26286.555606 42532.540418 0.000000
v -26286.555606 -42532.540418 0.000000
v 26286.555606 -42532.540418 0.000000
v 0.000000 -26286.555606 42532.540418
v 0.000000 26286.555606 42532.540418
v 0.000000 -26286.555606 -42532.540418
v 0.000000 26286.555606 -42532.540418
v 42532.540418 0.000000 -26286.555606
v 42532.540418 0.000000 26286.555606
v -42532.540418 0.000000 -26286.555606
v -42532.540418 0.000000 26286.555606
v -40450.849719 25000.000000 15450.849719
v -25000.000000 15450.849719 40450.849719
v -15450.849719 40450.849719 25000.000000
v 15450.849719 40450.849719 25000.000000
v 0.000000 50000.000000 0.000000
v 15450.849719 40450.849719 -25000.000000
v -15450.849719 40450.849719 -25000.000000
v -25000.000000 15450.849719 -40450.849719
v -40450.849719 25000.000000 -15450.849719
v -50000.000000 0.000000 0.000000
v 25000.000000 15450.849719 40450.849719
v 40450.849719 25000.000000 15450.849719
v -25000.000000 -15450.849719 40450.849719
v 0.000000 0.000000 50000.000000
v -40450.849719 -25000.000000 -15450.849719
v -40450.849719 -25000.000000 15450.849719
v 0.000000 0.000000 -50000.000000
v -25000.000000 -15450.849719 -40450.849719
v 40450.849719 25000.000000 -15450.849719
v 25000.000000 15450.849719 -40450.849719
v 40450.849719 -25000.000000 15450.849719
v 25000.000000 -15450.849719 40450.849719
v 15450.849719 -40450.849719 25000.000000
v -15450.849719 -40450.849719 25000.000000
v 0.000000 -50000.000000 0.000000
v -15450.849719 -40450.849719 -25000.000000
v 15450.849719 -40450.849719 -25000.000000
v 25000.000000 -15450.849719 -40450.849719
v 40450.849719 -25000.000000 -15450.849719
v 50000.000000 0.000000 0.000000
v -34689.023878 35102.322239 8031.101782
v -29389.262615 34409.548012 21266.270209
v -21694.428228 43133.424021 12994.595650
v -35102.322239 8031.101782 34689.023878
v -34409.548012 21266.270209 29389.262615
v -43133.424021 12994.595650 21694.428228
v -8031.101782 34689.023878 35102.322239
v -21266.270209 29389.262615 34409.548012
v -12994.595650 21694.428228 43133.424021
v -8122.992406 47552.825815 13143.277803
v -13663.326446 48096.917889 0.000000
v 8031.101782 34689.023878 35102.322239
v 0.000000 42532.540418 26286.555606
v 13663.326446 48096.917889 0.000000
v 8122.992406 47552.825815 13143.277803
v 21694.428228 43133.424021 12994.595650
v -8122.992406 47552.825815 -13143.277803
v -21694.428228 43133.424021 -12994.595650
v 21694.428228 43133.424021 -12994.595650
v 8122.992406 47552.825815 -13143.277803
v -8031.101782 34689.023878 -35102.322239
v 0.000000 42532.540418 -26286.555606
v 8031.101782 34689.023878 -35102.322239
v -29389.262615 34409.548012 -21266.270209
v -34689.023878 35102.322239 -8031.101782
v -12994.595650 21694.428228 -43133.424021
v -21266.270209 29389.262615 -34409.548012
v -43133.424021 12994.595650 -21694.428228
v -34409.548012 21266.270209 -29389.262615
v -35102.322239 8031.101782 -34689.023878
v -42532.540418 26286.555606 0.000000
v -48096.917889 0.000000 -13663.326446
v -47552.825815 13143.277803 -8122.992406
v -47552.825815 13143.277803 8122.992406
v -48096.917889 0.000000 13663.326446
v 29389.262615 34409.548012 21266.270209
v 34689.023878 35102.322239 8031.101782
v 12994.595650 21694.428228 43133.424021
v 21266.270209 29389.262615 34409.548012
v 43133.424021 12994.595650 21694.428228
v 34409.548012 21266.270209 29389.262615
v 35102.322239 8031.101782 34689.023878
v -13143.277803 8122.992406 47552.825815
v 0.000000 13663.326446 48096.917889
v -35102.322239 -8031.101782 34689.023878
v -26286.555606 0.000000 42532.540418
v 0.000000 -13663.326446 48096.917889
v -13143.277803 -8122.992406 47552.825815
v -12994.595650 -21694.428228 43133.424021
v -47552.825815 -13143.277803 8122.992406
v -43133.424021 -12994.595650 21694.428228
v -43133.424021 -12994.595650 -21694.428228
v -47552.825815 -13143.277803 -8122.992406
v -34689.023878 -35102.322239 8031.101782
v -42532.540418 -26286.555606 0.000000
v -34689.023878 -35102.322239 -8031.101782
v -26286.555606 0.000000 -42532.540418
v -35102.322239 -8031.101782 -34689.023878
v 0.000000 13663.326446 -48096.917889
v -13143.277803 8122.992406 -47552.825815
v -12994.595650 -21694.428228 -43133.424021
v -13143.277803 -8122.992406 -47552.825815
v 0.000000 -13663.326446 -48096.917889
v 21266.270209 29389.262615 -34409.548012
v 12994.595650 21694.428228 -43133.424021
v 34689.023878 35102.322239 -8031.101782
v 29389.262615 34409.548012 -21266.270209
v 35102.322239 8031.101782 -34689.023878
v 34409.548012 21266.270209 -29389.262615
v 43133.424021 12994.595650 -21694.428228
v 34689.023878 -35102.322239 8031.101782
v 29389.262615 -34409.548012 21266.270209
v 21694.428228 -43133.424021 12994.595650
v 35102.322239 -8031.101782 34689.023878
v 34409.548012 -21266.270209 29389.262615
v 43133.424021 -12994.595650 21694.428228
v 8031.101782 -34689.023878 35102.322239
v 21266.270209 -29389.262615 34409.548012
v 12994.595650 -21694.428228 43133.424021
v 8122.992406 -47552.825815 13143.277803
v 13663.326446 -48096.917889 0.000000
v -8031.101782 -34689.023878 35102.322239
v 0.000000 -42532.540418 26286.555606
v -13663.326446 -48096.917889 0.000000
v -8122.992406 -47552.825815 13143.277803
v -21694.428228 -43133.424021 12994.595650
v 8122.992406 -47552.825815 -13143.277803
v 21694.428228 -43133.424021 -12994.595650
v -21694.428228 -43133.424021 -12994.595650
v -8122.992406 -47552.825815 -13143.277803
v 8031.101782 -34689.023878 -35102.322239
v 0.000000 -42532.540418 -26286.555606
v -8031.101782 -34689.023878 -35102.322239
v 29389.262615 -34409.548012 -21266.270209
v 34689.023878 -35102.322239 -8031.101782
v 12994.595650 -21694.428228 -43133.424021
v 21266.270209 -29389.262615 -34409.548012
v 43133.424021 -12994.595650 -21694.428228
v 34409.548012 -21266.270209 -29389.262615
v 35102.322239 -8031.101782 -34689.023878
v 42532.540418 -26286.555606 0.000000
v 48096.917889 0.000000 -13663.326446
v 47552.825815 -13143.277803 -8122.992406
v 47552.825815 -13143.277803 8122.992406
v 48096.917889 0.000000 13663.326446
v 13143.277803 -8122.992406 47552.825815
v 26286.555606 0.000000 42532.540418
v 13143.277803 8122.992406 47552.825815
v -29389.262615 -34409.548012 21266.270209
v -21266.270209 -29389.262615 34409.548012
v -34409.548012 -21266.270209 29389.262615
v -21266.270209 -29389.262615 -34409.548012
v -29389.262615 -34409.548012 -21266.270209
v -34409.548012 -21266.270209 -29389.262615
v 26286.555606 0.000000 -42532.540418
v 13143.277803 -8122.992406 -47552.825815
v 13143.277803 8122.992406 -47552.825815
v 47552.825815 13143.277803 8122.992406
v 47552.825815 13143.277803 -8122.992406
v 42532.540418 26286.555606 0.000000
v -30782.101044 39192.152121 4054.314672
v -28562.582957 39632.461463 10651.143282
v -24222.082103 43246.466793 6560.018941
v -35355.339059 30075.047750 18587.401723
v -32370.594694 35115.492337 14800.229629
v -37932.615008 30341.257464 11854.316268
v -18751.928374 42195.573731 19180.686634
v -25806.081003 39172.584918 17307.650739
v -22699.524987 37896.771002 23421.492543
v -39192.152121 4054.314672 30782.101044
v -39632.461463 10651.143282 28562.582957
v -43246.466793 6560.018941 24222.082103
v -30075.047750 18587.401723 35355.339059
v -35115.492337 14800.229629 32370.594694
v -30341.257464 11854.316268 37932.615008
v -42195.573731 19180.686634 18751.928374
v -39172.584918 17307.650739 25806.081003
v -37896.771002 23421.492543 22699.524987
v -4054.314672 30782.101044 39192.152121
v -10651.143282 28562.582957 39632.461463
v -6560.018941 24222.082103 43246.466793
v -18587.401723 35355.339059 30075.047750
v -14800.229629 32370.594694 35115.492337
v -11854.316268 37932.615008 30341.257464
v -19180.686634 18751.928374 42195.573731
v -17307.650739 25806.081003 39172.584918
v -23421.492543 22699.524987 37896.771002
v -32328.889590 28212.710588 25668.772062
v -28212.710588 25668.772062 32328.889590
v -25668.772062 32328.889590 28212.710588
v -17911.439674 46215.230031 6582.768568
v -20167.767431 45752.171062 0.000000
v -11933.846516 44550.326209 19309.369279
v -15062.943955 45812.208760 13204.137533
v -6897.612106 49521.944098 0.000000
v -11005.851374 48319.629870 6639.623841
v -4112.123264 49384.417030 6653.555207
v 4054.314672 30782.101044 39192.152121
v 0.000000 35145.351524 35564.086748
v 7821.723252 42008.894266 25962.924486
v 4057.092581 39010.218536 31011.979131
v 11854.316268 37932.615008 30341.257464
v -4057.092581 39010.218536 31011.979131
v -7821.723252 42008.894266 25962.924486
v 20167.767431 45752.171062 0.000000
v 17911.439674 46215.230031 6582.768568
v 24222.082103 43246.466793 6560.018941
v 4112.123264 49384.417030 6653.555207
v 11005.851374 48319.629870 6639.623841
v 6897.612106 49521.944098 0.000000
v 18751.928374 42195.573731 19180.686634
v 15062.943955 45812.208760 13204.137533
v 11933.846516 44550.326209 19309.369279
v -4116.179002 45649.124647 19980.352585
v 4116.179002 45649.124647 19980.352585
v 0.000000 48193.063173 13320.235057
v -17911.439674 46215.230031 -6582.768568
v -24222.082103 43246.466793 -6560.018941
v -4112.123264 49384.417030 -6653.555207
v -11005.851374 48319.629870 -6639.623841
v -18751.928374 42195.573731 -19180.686634
v -15062.943955 45812.208760 -13204.137533
v -11933.846516 44550.326209 -19309.369279
v 24222.082103 43246.466793 -6560.018941
v 17911.439674 46215.230031 -6582.768568
v 11933.846516 44550.326209 -19309.369279
v 15062.943955 45812.208760 -13204.137533
v 18751.928374 42195.573731 -19180.686634
v 11005.851374 48319.629870 -6639.623841
v 4112.123264 49384.417030 -6653.555207
v -4054.314672 30782.101044 -39192.152121
v 0.000000 35145.351524 -35564.086748
v 4054.314672 30782.101044 -39192.152121
v -7821.723252 42008.894266 -25962.924486
v -4057.092581 39010.218536 -31011.979131
v -11854.316268 37932.615008 -30341.257464
v 11854.316268 37932.615008 -30341.257464
v 4057.092581 39010.218536 -31011.979131
v 7821.723252 42008.894266 -25962.924486
v 0.000000 48193.063173 -13320.235057
v 4116.179002 45649.124647 -19980.352585
v -4116.179002 45649.124647 -19980.352585
v -28562.582957 39632.461463 -10651.143282
v -30782.101044 39192.152121 -4054.314672
v -22699.524987 37896.771002 -23421.492543
v -25806.081003 39172.584918 -17307.650739
v -37932.615008 30341.257464 -11854.316268
v -32370.594694 35115.492337 -14800.229629
v -35355.339059 30075.047750 -18587.401723
v -6560.018941 24222.082103 -43246.466793
v -10651.143282 28562.582957 -39632.461463
v -23421.492543 22699.524987 -37896.771002
v -17307.650739 25806.081003 -39172.584918
v -19180.686634 18751.928374 -42195.573731
v -14800.229629 32370.594694 -35115.492337
v -18587.401723 35355.339059 -30075.047750
v -43246.466793 6560.018941 -24222.082103
v -39632.461463 10651.143282 -28562.582957
v -39192.152121 4054.314672 -30782.101044
v -37896.771002 23421.492543 -22699.524987
v -39172.584918 17307.650739 -25806.081003
v -42195.573731 19180.686634 -18751.928374
v -30341.257464 11854.316268 -37932.615008
v -35115.492337 14800.229629 -32370.594694
v -30075.047750 18587.401723 -35355.339059
v -25668.772062 32328.889590 -28212.710588
v -28212.710588 25668.772062 -32328.889590
v -32328.889590 28212.710588 -25668.772062
v -35145.351524 35564.086748 0.000000
v -42008.894266 25962.924486 -7821.723252
v -39010.218536 31011.979131 -4057.092581
v -39010.218536 31011.979131 4057.092581
v -42008.894266 25962.924486 7821.723252
v -45752.171062 0.000000 -20167.767431
v -46215.230031 6582.768568 -17911.439674
v -49384.417030 6653.555207 -4112.123264
v -48319.629870 6639.623841 -11005.851374
v -49521.944098 0.000000 -6897.612106
v -45812.208760 13204.137533 -15062.943955
v -44550.326209 19309.369279 -11933.846516
v -46215.230031 6582.768568 17911.439674
v -45752.171062 0.000000 20167.767431
v -44550.326209 19309.369279 11933.846516
v -45812.208760 13204.137533 15062.943955
v -49521.944098 0.000000 6897.612106
v -48319.629870 6639.623841 11005.851374
v -49384.417030 6653.555207 4112.123264
v -45649.124647 19980.352585 -4116.179002
v -48193.063173 13320.235057 0.000000
v -45649.124647 19980.352585 4116.179002
v 28562.582957 39632.461463 10651.143282
v 30782.101044 39192.152121 4054.314672
v 22699.524987 37896.771002 23421.492543
v 25806.081003 39172.584918 17307.650739
v 37932.615008 30341.257464 11854.316268
v 32370.594694 35115.492337 14800.229629
v 35355.339059 30075.047750 18587.401723
v 6560.018941 24222.082103 43246.466793
v 10651.143282 28562.582957 39632.461463
v 23421.492543 22699.524987 37896.771002
v 17307.650739 25806.081003 39172.584918
v 19180.686634 18751.928374 42195.573731
v 14800.229629 32370.594694 35115.492337
v 18587.401723 35355.339059 30075.047750
v 43246.466793 6560.018941 24222.082103
v 39632.461463 10651.143282 28562.582957
v 39192.152121 4054.314672 30782.101044
v 37896.771002 23421.492543 22699.524987
v 39172.584918 17307.650739 25806.081003
v 42195.573731 19180.686634 18751.928374
v 30341.257464 11854.316268 37932.615008
v 35115.492337 14800.229629 32370.594694
v 30075.047750 18587.401723 35355.339059
v 25668.772062 32328.889590 28212.710588
v 28212.710588 25668.772062 32328.889590
v 32328.889590 28212.710588 25668.772062
v -6582.768568 17911.439674 46215.230031
v 0.000000 20167.767431 45752.171062
v -19309.369279 11933.846516 44550.326209
v -13204.137533 15062.943955 45812.208760
v 0.000000 6897.612106 49521.944098
v -6639.623841 11005.851374 48319.629870
v -6653.555207 4112.123264 49384.417030
v -39192.152121 -4054.314672 30782.101044
v -35564.086748 0.000000 35145.351524
v -25962.924486 -7821.723252 42008.894266
v -31011.979131 -4057.092581 39010.218536
v -30341.257464 -11854.316268 37932.615008
v -31011.979131 4057.092581 39010.218536
v -25962.924486 7821.723252 42008.894266
v 0.000000 -20167.767431 45752.171062
v -6582.768568 -17911.439674 46215.230031
v -6560.018941 -24222.082103 43246.466793
v -6653.555207 -4112.123264 49384.417030
v -6639.623841 -11005.851374 48319.629870
v 0.000000 -6897.612106 49521.944098
v -19180.686634 -18751.928374 42195.573731
v -13204.137533 -15062.943955 45812.208760
v -19309.369279 -11933.846516 44550.326209
v -19980.352585 4116.179002 45649.124647
v -19980.352585 -4116.179002 45649.124647
v -13320.235057 0.000000 48193.063173
v -46215.230031 -6582.768568 17911.439674
v -43246.466793 -6560.018941 24222.082103
v -49384.417030 -6653.555207 4112.123264
v -48319.629870 -6639.623841 11005.851374
v -42195.573731 -19180.686634 18751.928374
v -45812.208760 -13204.137533 15062.943955
v -44550.326209 -19309.369279 11933.846516
v -43246.466793 -6560.018941 -24222.082103
v -46215.230031 -6582.768568 -17911.439674
v -44550.326209 -19309.369279 -11933.846516
v -45812.208760 -13204.137533 -15062.943955
v -42195.573731 -19180.686634 -18751.928374
v -48319.629870 -6639.623841 -11005.851374
v -49384.417030 -6653.555207 -4112.123264
v -30782.101044 -39192.152121 4054.314672
v -35145.351524 -35564.086748 0.000000
v -30782.101044 -39192.152121 -4054.314672
v -42008.894266 -25962.924486 7821.723252
v -39010.218536 -31011.979131 4057.092581
v -37932.615008 -30341.257464 11854.316268
v -37932.615008 -30341.257464 -11854.316268
v -39010.218536 -31011.979131 -4057.092581
v -42008.894266 -25962.924486 -7821.723252
v -48193.063173 -13320.235057 0.000000
v -45649.124647 -19980.352585 -4116.179002
v -45649.124647 -19980.352585 4116.179002
v -35564.086748 0.000000 -35145.351524
v -39192.152121 -4054.314672 -30782.101044
v -25962.924486 7821.723252 -42008.894266
v -31011.979131 4057.092581 -39010.218536
v -30341.257464 -11854.316268 -37932.615008
v -31011.979131 -4057.092581 -39010.218536
v -25962.924486 -7821.723252 -42008.894266
v 0.000000 20167.767431 -45752.171062
v -6582.768568 17911.439674 -46215.230031
v -6653.555207 4112.123264 -49384.417030
v -6639.623841 11005.851374 -48319.629870
v 0.000000 6897.612106 -49521.944098
v -13204.137533 15062.943955 -45812.208760
v -19309.369279 11933.846516 -44550.326209
v -6560.018941 -24222.082103 -43246.466793
v -6582.768568 -17911.439674 -46215.230031
v 0.000000 -20167.767431 -45752.171062
v -19309.369279 -11933.846516 -44550.326209
v -13204.137533 -15062.943955 -45812.208760
v -19180.686634 -18751.928374 -42195.573731
v 0.000000 -6897.612106 -49521.944098
v -6639.623841 -11005.851374 -48319.629870
v -6653.555207 -4112.123264 -49384.417030
v -19980.352585 4116.179002 -45649.124647
v -13320.235057 0.000000 -48193.063173
v -19980.352585 -4116.179002 -45649.124647
v 10651.143282 28562.582957 -39632.461463
v 6560.018941 24222.082103 -43246.466793
v 18587.401723 35355.339059 -30075.047750
v 14800.229629 32370.594694 -35115.492337
v 19180.686634 18751.928374 -42195.573731
v 17307.650739 25806.081003 -39172.584918
v 23421.492543 22699.524987 -37896.771002
v 30782.101044 39192.152121 -4054.314672
v 28562.582957 39632.461463 -10651.143282
v 35355.339059 30075.047750 -18587.401723
v 32370.594694 35115.492337 -14800.229629
v 37932.615008 30341.257464 -11854.316268
v 25806.081003 39172.584918 -17307.650739
v 22699.524987 37896.771002 -23421.492543
v 39192.152121 4054.314672 -30782.101044
v 39632.461463 10651.143282 -28562.582957
v 43246.466793 6560.018941 -24222.082103
v 30075.047750 18587.401723 -35355.339059
v 35115.492337 14800.229629 -32370.594694
v 30341.257464 11854.316268 -37932.615008
v 42195.573731 19180.686634 -18751.928374
v 39172.584918 17307.650739 -25806.081003
v 37896.771002 23421.492543 -22699.524987
v 25668.772062 32328.889590 -28212.710588
v 32328.889590 28212.710588 -25668.772062
v 28212.710588 25668.772062 -32328.889590
v 30782.101044 -39192.152121 4054.314672
v 28562.582957 -39632.461463 10651.143282
v 24222.082103 -43246.466793 6560.018941
v 35355.339059 -30075.047750 18587.401723
v 32370.594694 -35115.492337 14800.229629
v 37932.615008 -30341.257464 11854.316268
v 18751.928374 -42195.573731 19180.686634
v 25806.081003 -39172.584918 17307.650739
v 22699.524987 -37896.771002 23421.492543
v 39192.152121 -4054.314672 30782.101044
v 39632.461463 -10651.143282 28562.582957
v 43246.466793 -6560.018941 24222.082103
v 30075.047750 -18587.401723 35355.339059
v 35115.492337 -14800.229629 32370.594694
v 30341.257464 -11854.316268 37932.615008
v 42195.573731 -19180.686634 18751.928374
v 39172.584918 -17307.650739 25806.081003
v 37896.771002 -23421.492543 22699.524987
v 4054.314672 -30782.101044 39192.152121
v 10651.143282 -28562.582957 39632.461463
v 6560.018941 -24222.082103 43246.466793
v 18587.401723 -35355.339059 30075.047750
v 14800.229629 -32370.594694 35115.492337
v 11854.316268 -37932.615008 30341.257464
v 19180.686634 -18751.928374 42195.573731
v 17307.650739 -25806.081003 39172.584918
v 23421.492543 -22699.524987 37896.771002
v 32328.889590 -28212.710588 25668.772062
v 28212.710588 -25668.772062 32328.889590
v 25668.772062 -32328.889590 28212.710588
v 17911.439674 -46215.230031 6582.768568
v 20167.767431 -45752.171062 0.000000
v 11933.846516 -44550.326209 19309.369279
v 15062.943955 -45812.208760 13204.137533
v 6897.612106 -49521.944098 0.000000
v 11005.851374 -48319.629870 6639.623841
v 4112.123264 -49384.417030 6653.555207
v -4054.314672 -30782.101044 39192.152121
v 0.000000 -35145.351524 35564.086748
v -7821.723252 -42008.894266 25962.924486
v -4057.092581 -39010.218536 31011.979131
v -11854.316268 -37932.615008 30341.257464
v 4057.092581 -39010.218536 31011.979131
v 7821.723252 -42008.894266 25962.924486
v -20167.767431 -45752.171062 0.000000
v -17911.439674 -46215.230031 6582.768568
v -24222.082103 -43246.466793 6560.018941
v -4112.123264 -49384.417030 6653.555207
v -11005.851374 -48319.629870 6639.623841
v -6897.612106 -49521.944098 0.000000
v -18751.928374 -42195.573731 19180.686634
v -15062.943955 -45812.208760 13204.137533
v -11933.846516 -44550.326209 19309.369279
v 4116.179002 -45649.124647 19980.352585
v -4116.179002 -45649.124647 19980.352585
v 0.000000 -48193.063173 13320.235057
v 17911.439674 -46215.230031 -6582.768568
v 24222.082103 -43246.466793 -6560.018941
v 4112.123264 -49384.417030 -6653.555207
v 11005.851374 -48319.629870 -6639.623841
v 18751.928374 -42195.573731 -19180.686634
v 15062.943955 -45812.208760 -13204.137533
v 11933.846516 -44550.326209 -19309.369279
v -24222.082103 -43246.466793 -6560.018941
v -17911.439674 -46215.230031 -6582.768568
v -11933.846516 -44550.326209 -19309.369279
v -15062.943955 -45812.208760 -13204.137533
v -18751.928374 -42195.573731 -19180.686634
v -11005.851374 -48319.629870 -6639.623841
v -4112.123264 -49384.417030 -6653.555207
v 4054.314672 -30782.101044 -39192.152121
v 0.000000 -35145.351524 -35564.086748
v -4054.314672 -30782.101044 -39192.152121
v 7821.723252 -42008.894266 -25962.924486
v 4057.092581 -39010.218536 -31011.979131
v 11854.316268 -37932.615008 -30341.257464
v -11854.316268 -37932.615008 -30341.257464
v -4057.092581 -39010.218536 -31011.979131
v -7821.723252 -42008.894266 -25962.924486
v 0.000000 -48193.063173 -13320.235057
v -4116.179002 -45649.124647 -19980.352585
v 4116.179002 -45649.124647 -19980.352585
v 28562.582957 -39632.461463 -10651.143282
v 30782.101044 -39192.152121 -4054.314672
v 22699.524987 -37896.771002 -23421.492543
v 25806.081003 -39172.584918 -17307.650739
v 37932.615008 -30341.257464 -11854.316268
v 32370.594694 -35115.492337 -14800.229629
v 35355.339059 -30075.047750 -18587.401723
v 6560.018941 -24222.082103 -43246.466793
v 10651.143282 -28562.582957 -39632.461463
v 23421.492543 -22699.524987 -37896.771002
v 17307.650739 -25806.081003 -39172.584918
v 19180.686634 -18751.928374 -42195.573731
v 14800.229629 -32370.594694 -35115.492337
v 18587.401723 -35355.339059 -30075.047750
v 43246.466793 -6560.018941 -24222.082103
v 39632.461463 -10651.143282 -28562.582957
v 39192.152121 -4054.314672 -30782.101044
v 37896.771002 -23421.492543 -22699.524987
v 39172.584918 -17307.650739 -25806.081003
v 42195.573731 -19180.686634 -18751.928374
v 30341.257464 -11854.316268 -37932.615008
v 35115.492337 -14800.229629 -32370.594694
v 30075.047750 -18587.401723 -35355.339059
v 25668.772062 -32328.889590 -28212.710588
v 28212.710588 -25668.772062 -32328.889590
v 32328.889590 -28212.710588 -25668.772062
v 35145.351524 -35564.086748 0.000000
v 42008.894266 -25962.924486 -7821.723252
v 39010.218536 -31011.979131 -4057.092581
v 39010.218536 -31011.979131 4057.092581
v 42008.894266 -25962.924486 7821.723252
v 45752.171062 0.000000 -20167.767431
v 46215.230031 -6582.768568 -17911.439674
v 49384.417030 -6653.555207 -4112.123264
v 48319.629870 -6639.623841 -11005.851374
v 49521.944098 0.000000 -6897.612106
v 45812.208760 -13204.137533 -15062.943955
v 44550.326209 -19309.369279 -11933.846516
v 46215.230031 -6582.768568 17911.439674
v 45752.171062 0.000000 20167.767431
v 44550.326209 -19309.369279 11933.846516
v 45812.208760 -13204.137533 15062.943955
v 49521.944098 0.000000 6897.612106
v 48319.629870 -6639.623841 11005.851374
v 49384.417030 -6653.555207 4112.123264
v 45649.124647 -19980.352585 -4116.179002
v 48193.063173 -13320.235057 0.000000
v 45649.124647 -19980.352585 4116.179002
v 6582.768568 -17911.439674 46215.230031
v 19309.369279 -11933.846516 44550.326209
v 13204.137533 -15062.943955 45812.208760
v 6639.623841 -11005.851374 48319.629870
v 6653.555207 -4112.123264 49384.417030
v 35564.086748 0.000000 35145.351524
v 25962.924486 7821.723252 42008.894266
v 31011.979131 4057.092581 39010.218536
v 31011.979131 -4057.092581 39010.218536
v 25962.924486 -7821.723252 42008.894266
v 6582.768568 17911.439674 46215.230031
v 6653.555207 4112.123264 49384.417030
v 6639.623841 11005.851374 48319.629870
v 13204.137533 15062.943955 45812.208760
v 19309.369279 11933.846516 44550.326209
v 19980.352585 -4116.179002 45649.124647
v 19980.352585 4116.179002 45649.124647
v 13320.235057 0.000000 48193.063173
v -28562.582957 -39632.461463 10651.143282
v -22699.524987 -37896.771002 23421.492543
v -25806.081003 -39172.584918 17307.650739
v -32370.594694 -35115.492337 14800.229629
v -35355.339059 -30075.047750 18587.401723
v -10651.143282 -28562.582957 39632.461463
v -23421.492543 -22699.524987 37896.771002
v -17307.650739 -25806.081003 39172.584918
v -14800.229629 -32370.594694 35115.492337
v -18587.401723 -35355.339059 30075.047750
v -39632.461463 -10651.143282 28562.582957
v -37896.771002 -23421.492543 22699.524987
v -39172.584918 -17307.650739 25806.081003
v -35115.492337 -14800.229629 32370.594694
v -30075.047750 -18587.401723 35355.339059
v -25668.772062 -32328.889590 28212.710588
v -28212.710588 -25668.772062 32328.889590
v -32328.889590 -28212.710588 25668.772062
v -10651.143282 -28562.582957 -39632.461463
v -18587.401723 -35355.339059 -30075.047750
v -14800.229629 -32370.594694 -35115.492337
v -17307.650739 -25806.081003 -39172.584918
v -23421.492543 -22699.524987 -37896.771002
v -28562.582957 -39632.461463 -10651.143282
v -35355.339059 -30075.047750 -18587.401723
v -32370.594694 -35115.492337 -14800.229629
v -25806.081003 -39172.584918 -17307.650739
v -22699.524987 -37896.771002 -23421.492543
v -39632.461463 -10651.143282 -28562.582957
v -30075.047750 -18587.401723 -35355.339059
v -35115.492337 -14800.229629 -32370.594694
v -39172.584918 -17307.650739 -25806.081003
v -37896.771002 -23421.492543 -22699.524987
v -25668.772062 -32328.889590 -28212.710588
v -32328.889590 -28212.710588 -25668.772062
v -28212.710588 -25668.772062 -32328.889590
v 35564.086748 0.000000 -35145.351524
v 25962.924486 -7821.723252 -42008.894266
v 31011.979131 -4057.092581 -39010.218536
v 31011.979131 4057.092581 -39010.218536
v 25962.924486 7821.723252 -42008.894266
v 6582.768568 -17911.439674 -46215.230031
v 6653.555207 -4112.123264 -49384.417030
v 6639.623841 -11005.851374 -48319.629870
v 13204.137533 -15062.943955 -45812.208760
v 19309.369279 -11933.846516 -44550.326209
v 6582.768568 17911.439674 -46215.230031
v 19309.369279 11933.846516 -44550.326209
v 13204.137533 15062.943955 -45812.208760
v 6639.623841 11005.851374 -48319.629870
v 6653.555207 4112.123264 -49384.417030
v 19980.352585 -4116.179002 -45649.124647
v 13320.235057 0.000000 -48193.063173
v 19980.352585 4116.179002 -45649.124647
v 46215.230031 6582.768568 17911.439674
v 49384.417030 6653.555207 4112.123264
v 48319.629870 6639.623841 11005.851374
v 45812.208760 13204.137533 15062.943955
v 44550.326209 19309.369279 11933.846516
v 46215.230031 6582.768568 -17911.439674
v 44550.326209 19309.369279 -11933.846516
v 45812.208760 13204.137533 -15062.943955
v 48319.629870 6639.623841 -11005.851374
v 49384.417030 6653.555207 -4112.123264
v 35145.351524 35564.086748 0.000000
v 42008.894266 25962.924486 7821.723252
v 39010.218536 31011.979131 4057.092581
v 39010.218536 31011.979131 -4057.092581
v 42008.894266 25962.924486 -7821.723252
v 48193.063173 13320.235057 0.000000
v 45649.124647 19980.352585 -4116.179002
v 45649.124647 19980.352585 4116.179002
f 1 165 163
f 43 163 164
f 45 164 165
f 163 165 164
f 13 168 166
f 44 166 167
f 43 167 168
f 166 168 167
f 15 171 169
f 45 169 170
f 44 170 171
f 169 171 170
f 43 164 167
f 44 167 170
f 45 170 164
f 167 164 170
f 12 174 172
f 46 172 173
f 48 173 174
f 172 174 173
f 14 177 175
f 47 175 176
f 46 176 177
f 175 177 176
f 13 180 178
f 48 178 179
f 47 179 180
f 178 180 179
f 46 173 176
f 47 176 179
f 48 179 173
f 176 173 179
f 6 183 181
f 49 181 182
f 51 182 183
f 181 183 182
f 15 186 184
f 50 184 185
f 49 185 186
f 184 186 185
f 14 189 187
f 51 187 188
f 50 188 189
f 187 189 188
f 49 182 185
f 50 185 188
f 51 188 182
f 185 182 188
f 13 166 180
f 47 180 190
f 44 190 166
f 180 166 190
f 14 175 189
f 50 189 191
f 47 191 175
f 189 175 191
f 15 184 171
f 44 171 192
f 50 192 184
f 171 184 192
f 47 190 191
f 50 191 192
f 44 192 190
f 191 190 192
f 1 194 165
f 45 165 193
f 53 193 194
f 165 194 193
f 15 169 195
f 52 195 196
f 45 196 169
f 195 169 196
f 17 199 197
f 53 197 198
f 52 198 199
f 197 199 198
f 45 193 196
f 52 196 198
f 53 198 193
f 196 193 198
f 6 181 200
f 54 200 201
f 49 201 181
f 200 181 201
f 16 204 202
f 55 202 203
f 54 203 204
f 202 204 203
f 15 206 186
f 49 186 205
f 55 205 206
f 186 206 205
f 54 201 203
f 55 203 205
f 49 205 201
f 203 201 205
f 2 209 207
f 56 207 208
f 58 208 209
f 207 209 208
f 17 212 210
f 57 210 211
f 56 211 212
f 210 212 211
f 16 215 213
f 58 213 214
f 57 214 215
f 213 215 214
f 56 208 211
f 57 211 214
f 58 214 208
f 211 208 214
f 15 195 206
f 55 206 216
f 52 216 195
f 206 195 216
f 16 202 215
f 57 215 217
f 55 217 202
f 215 202 217
f 17 210 199
f 52 199 218
f 57 218 210
f 199 210 218
f 55 216 217
f 57 217 218
f 52 218 216
f 217 216 218
f 1 220 194
f 53 194 219
f 60 219 220
f 194 220 219
f 17 197 221
f 59 221 222
f 53 222 197
f 221 197 222
f 19 225 223
f 60 223 224
f 59 224 225
f 223 225 224
f 53 219 222
f 59 222 224
f 60 224 219
f 222 219 224
f 2 207 226
f 61 226 227
f 56 227 207
f 226 207 227
f 18 230 228
f 62 228 229
f 61 229 230
f 228 230 229
f 17 232 212
f 56 212 231
f 62 231 232
f 212 232 231
f 61 227 229
f 62 229 231
f 56 231 227
f 229 227 231
f 8 235 233
f 63 233 234
f 65 234 235
f 233 235 234
f 19 238 236
f 64 236 237
f 63 237 238
f 236 238 237
f 18 241 239
f 65 239 240
f 64 240 241
f 239 241 240
f 63 234 237
f 64 237 240
f 65 240 234
f 237 234 240
f 17 221 232
f 62 232 242
f 59 242 221
f 232 221 242
f 18 228 241
f 64 241 243
f 62 243 228
f 241 228 243
f 19 236 225
f 59 225 244
f 64 244 236
f 225 236 244
f 62 242 243
f 64 243 244
f 59 244 242
f 243 242 244
f 1 246 220
f 60 220 245
f 67 245 246
f 220 246 245
f 19 223 247
f 66 247 248
f 60 248 223
f 247 223 248
f 21 251 249
f 67 249 250
f 66 250 251
f 249 251 250
f 60 245 248
f 66 248 250
f 67 250 245
f 248 245 250
f 8 233 252
f 68 252 253
f 63 253 233
f 252 233 253
f 20 256 254
f 69 254 255
f 68 255 256
f 254 256 255
f 19 258 238
f 63 238 257
f 69 257 258
f 238 258 257
f 68 253 255
f 69 255 257
f 63 257 253
f 255 253 257
f 11 261 259
f 70 259 260
f 72 260 261
f 259 261 260
f 21 264 262
f 71 262 263
f 70 263 264
f 262 264 263
f 20 267 265
f 72 265 266
f 71 266 267
f 265 267 266
f 70 260 263
f 71 263 266
f 72 266 260
f 263 260 266
f 19 247 258
f 69 258 268
f 66 268 247
f 258 247 268
f 20 254 267
f 71 267 269
f 69 269 254
f 267 254 269
f 21 262 251
f 66 251 270
f 71 270 262
f 251 262 270
f 69 268 269
f 71 269 270
f 66 270 268
f 269 268 270
f 1 163 246
f 67 246 271
f 43 271 163
f 246 163 271
f 21 249 272
f 73 272 273
f 67 273 249
f 272 249 273
f 13 275 168
f 43 168 274
f 73 274 275
f 168 275 274
f 67 271 273
f 73 273 274
f 43 274 271
f 273 271 274
f 11 259 276
f 74 276 277
f 70 277 259
f 276 259 277
f 22 280 278
f 75 278 279
f 74 279 280
f 278 280 279
f 21 282 264
f 70 264 281
f 75 281 282
f 264 282 281
f 74 277 279
f 75 279 281
f 70 281 277
f 279 277 281
f 12 284 174
f 48 174 283
f 77 283 284
f 174 284 283
f 13 178 285
f 76 285 286
f 48 286 178
f 285 178 286
f 22 289 287
f 77 287 288
f 76 288 289
f 287 289 288
f 48 283 286
f 76 286 288
f 77 288 283
f 286 283 288
f 21 272 282
f 75 282 290
f 73 290 272
f 282 272 290
f 22 278 289
f 76 289 291
f 75 291 278
f 289 278 291
f 13 285 275
f 73 275 292
f 76 292 285
f 275 285 292
f 75 290 291
f 76 291 292
f 73 292 290
f 291 290 292
f 2 294 209
f 58 209 293
f 79 293 294
f 209 294 293
f 16 213 295
f 78 295 296
f 58 296 213
f 295 213 296
f 24 299 297
f 79 297 298
f 78 298 299
f 297 299 298
f 58 293 296
f 78 296 298
f 79 298 293
f 296 293 298
f 6 200 300
f 80 300 301
f 54 301 200
f 300 200 301
f 23 304 302
f 81 302 303
f 80 303 304
f 302 304 303
f 16 306 204
f 54 204 305
f 81 305 306
f 204 306 305
f 80 301 303
f 81 303 305
f 54 305 301
f 303 301 305
f 10 309 307
f 82 307 308
f 84 308 309
f 307 309 308
f 24 312 310
f 83 310 311
f 82 311 312
f 310 312 311
f 23 315 313
f 84 313 314
f 83 314 315
f 313 315 314
f 82 308 311
f 83 311 314
f 84 314 308
f 311 308 314
f 16 295 306
f 81 306 316
f 78 316 295
f 306 295 316
f 23 302 315
f 83 315 317
f 81 317 302
f 315 302 317
f 24 310 299
f 78 299 318
f 83 318 310
f 299 310 318
f 81 316 317
f 83 317 318
f 78 318 316
f 317 316 318
f 6 320 183
f 51 183 319
f 86 319 320
f 183 320 319
f 14 187 321
f 85 321 322
f 51 322 187
f 321 187 322
f 26 325 323
f 86 323 324
f 85 324 325
f 323 325 324
f 51 319 322
f 85 322 324
f 86 324 319
f 322 319 324
f 12 172 326
f 87 326 327
f 46 327 172
f 326 172 327
f 25 330 328
f 88 328 329
f 87 329 330
f 328 330 329
f 14 332 177
f 46 177 331
f 88 331 332
f 177 332 331
f 87 327 329
f 88 329 331
f 46 331 327
f 329 327 331
f 5 335 333
f 89 333 334
f 91 334 335
f 333 335 334
f 26 338 336
f 90 336 337
f 89 337 338
f 336 338 337
f 25 341 339
f 91 339 340
f 90 340 341
f 339 341 340
f 89 334 337
f 90 337 340
f 91 340 334
f 337 334 340
f 14 321 332
f 88 332 342
f 85 342 321
f 332 321 342
f 25 328 341
f 90 341 343
f 88 343 328
f 341 328 343
f 26 336 325
f 85 325 344
f 90 344 336
f 325 336 344
f 88 342 343
f 90 343 344
f 85 344 342
f 343 342 344
f 12 346 284
f 77 284 345
f 93 345 346
f 284 346 345
f 22 287 347
f 92 347 348
f 77 348 287
f 347 287 348
f 28 351 349
f 93 349 350
f 92 350 351
f 349 351 350
f 77 345 348
f 92 348 350
f 93 350 345
f 348 345 350
f 11 276 352
f 94 352 353
f 74 353 276
f 352 276 353
f 27 356 354
f 95 354 355
f 94 355 356
f 354 356 355
f 22 358 280
f 74 280 357
f 95 357 358
f 280 358 357
f 94 353 355
f 95 355 357
f 74 357 353
f 355 353 357
f 3 361 359
f 96 359 360
f 98 360 361
f 359 361 360
f 28 364 362
f 97 362 363
f 96 363 364
f 362 364 363
f 27 367 365
f 98 365 366
f 97 366 367
f 365 367 366
f 96 360 363
f 97 363 366
f 98 366 360
f 363 360 366
f 22 347 358
f 95 358 368
f 92 368 347
f 358 347 368
f 27 354 367
f 97 367 369
f 95 369 354
f 367 354 369
f 28 362 351
f 92 351 370
f 97 370 362
f 351 362 370
f 95 368 369
f 97 369 370
f 92 370 368
f 369 368 370
f 11 372 261
f 72 261 371
f 100 371 372
f 261 372 371
f 20 265 373
f 99 373 374
f 72 374 265
f 373 265 374
f 30 377 375
f 100 375 376
f 99 376 377
f 375 377 376
f 72 371 374
f 99 374 376
f 100 376 371
f 374 371 376
f 8 252 378
f 101 378 379
f 68 379 252
f 378 252 379
f 29 382 380
f 102 380 381
f 101 381 382
f 380 382 381
f 20 384 256
f 68 256 383
f 102 383 384
f 256 384 383
f 101 379 381
f 102 381 383
f 68 383 379
f 381 379 383
f 7 387 385
f 103 385 386
f 105 386 387
f 385 387 386
f 30 390 388
f 104 388 389
f 103 389 390
f 388 390 389
f 29 393 391
f 105 391 392
f 104 392 393
f 391 393 392
f 103 386 389
f 104 389 392
f 105 392 386
f 389 386 392
f 20 373 384
f 102 384 394
f 99 394 373
f 384 373 394
f 29 380 393
f 104 393 395
f 102 395 380
f 393 380 395
f 30 388 377
f 99 377 396
f 104 396 388
f 377 388 396
f 102 394 395
f 104 395 396
f 99 396 394
f 395 394 396
f 8 398 235
f 65 235 397
f 107 397 398
f 235 398 397
f 18 239 399
f 106 399 400
f 65 400 239
f 399 239 400
f 32 403 401
f 107 401 402
f 106 402 403
f 401 403 402
f 65 397 400
f 106 400 402
f 107 402 397
f 400 397 402
f 2 226 404
f 108 404 405
f 61 405 226
f 404 226 405
f 31 408 406
f 109 406 407
f 108 407 408
f 406 408 407
f 18 410 230
f 61 230 409
f 109 409 410
f 230 410 409
f 108 405 407
f 109 407 409
f 61 409 405
f 407 405 409
f 9 413 411
f 110 411 412
f 112 412 413
f 411 413 412
f 32 416 414
f 111 414 415
f 110 415 416
f 414 416 415
f 31 419 417
f 112 417 418
f 111 418 419
f 417 419 418
f 110 412 415
f 111 415 418
f 112 418 412
f 415 412 418
f 18 399 410
f 109 410 420
f 106 420 399
f 410 399 420
f 31 406 419
f 111 419 421
f 109 421 406
f 419 406 421
f 32 414 403
f 106 403 422
f 111 422 414
f 403 414 422
f 109 420 421
f 111 421 422
f 106 422 420
f 421 420 422
f 4 425 423
f 113 423 424
f 115 424 425
f 423 425 424
f 33 428 426
f 114 426 427
f 113 427 428
f 426 428 427
f 35 431 429
f 115 429 430
f 114 430 431
f 429 431 430
f 113 424 427
f 114 427 430
f 115 430 424
f 427 424 430
f 10 434 432
f 116 432 433
f 118 433 434
f 432 434 433
f 34 437 435
f 117 435 436
f 116 436 437
f 435 437 436
f 33 440 438
f 118 438 439
f 117 439 440
f 438 440 439
f 116 433 436
f 117 436 439
f 118 439 433
f 436 433 439
f 5 443 441
f 119 441 442
f 121 442 443
f 441 443 442
f 35 446 444
f 120 444 445
f 119 445 446
f 444 446 445
f 34 449 447
f 121 447 448
f 120 448 449
f 447 449 448
f 119 442 445
f 120 445 448
f 121 448 442
f 445 442 448
f 33 426 440
f 117 440 450
f 114 450 426
f 440 426 450
f 34 435 449
f 120 449 451
f 117 451 435
f 449 435 451
f 35 444 431
f 114 431 452
f 120 452 444
f 431 444 452
f 117 450 451
f 120 451 452
f 114 452 450
f 451 450 452
f 4 454 425
f 115 425 453
f 123 453 454
f 425 454 453
f 35 429 455
f 122 455 456
f 115 456 429
f 455 429 456
f 37 459 457
f 123 457 458
f 122 458 459
f 457 459 458
f 115 453 456
f 122 456 458
f 123 458 453
f 456 453 458
f 5 441 460
f 124 460 461
f 119 461 441
f 460 441 461
f 36 464 462
f 125 462 463
f 124 463 464
f 462 464 463
f 35 466 446
f 119 446 465
f 125 465 466
f 446 466 465
f 124 461 463
f 125 463 465
f 119 465 461
f 463 461 465
f 3 469 467
f 126 467 468
f 128 468 469
f 467 469 468
f 37 472 470
f 127 470 471
f 126 471 472
f 470 472 471
f 36 475 473
f 128 473 474
f 127 474 475
f 473 475 474
f 126 468 471
f 127 471 474
f 128 474 468
f 471 468 474
f 35 455 466
f 125 466 476
f 122 476 455
f 466 455 476
f 36 462 475
f 127 475 477
f 125 477 462
f 475 462 477
f 37 470 459
f 122 459 478
f 127 478 470
f 459 470 478
f 125 476 477
f 127 477 478
f 122 478 476
f 477 476 478
f 4 480 454
f 123 454 479
f 130 479 480
f 454 480 479
f 37 457 481
f 129 481 482
f 123 482 457
f 481 457 482
f 39 485 483
f 130 483 484
f 129 484 485
f 483 485 484
f 123 479 482
f 129 482 484
f 130 484 479
f 482 479 484
f 3 467 486
f 131 486 487
f 126 487 467
f 486 467 487
f 38 490 488
f 132 488 489
f 131 489 490
f 488 490 489
f 37 492 472
f 126 472 491
f 132 491 492
f 472 492 491
f 131 487 489
f 132 489 491
f 126 491 487
f 489 487 491
f 7 495 493
f 133 493 494
f 135 494 495
f 493 495 494
f 39 498 496
f 134 496 497
f 133 497 498
f 496 498 497
f 38 501 499
f 135 499 500
f 134 500 501
f 499 501 500
f 133 494 497
f 134 497 500
f 135 500 494
f 497 494 500
f 37 481 492
f 132 492 502
f 129 502 481
f 492 481 502
f 38 488 501
f 134 501 503
f 132 503 488
f 501 488 503
f 39 496 485
f 129 485 504
f 134 504 496
f 485 496 504
f 132 502 503
f 134 503 504
f 129 504 502
f 503 502 504
f 4 506 480
f 130 480 505
f 137 505 506
f 480 506 505
f 39 483 507
f 136 507 508
f 130 508 483
f 507 483 508
f 41 511 509
f 137 509 510
f 136 510 511
f 509 511 510
f 130 505 508
f 136 508 510
f 137 510 505
f 508 505 510
f 7 493 512
f 138 512 513
f 133 513 493
f 512 493 513
f 40 516 514
f 139 514 515
f 138 515 516
f 514 516 515
f 39 518 498
f 133 498 517
f 139 517 518
f 498 518 517
f 138 513 515
f 139 515 517
f 133 517 513
f 515 513 517
f 9 521 519
f 140 519 520
f 142 520 521
f 519 521 520
f 41 524 522
f 141 522 523
f 140 523 524
f 522 524 523
f 40 527 525
f 142 525 526
f 141 526 527
f 525 527 526
f 140 520 523
f 141 523 526
f 142 526 520
f 523 520 526
f 39 507 518
f 139 518 528
f 136 528 507
f 518 507 528
f 40 514 527
f 141 527 529
f 139 529 514
f 527 514 529
f 41 522 511
f 136 511 530
f 141 530 522
f 511 522 530
f 139 528 529
f 141 529 530
f 136 530 528
f 529 528 530
f 4 423 506
f 137 506 531
f 113 531 423
f 506 423 531
f 41 509 532
f 143 532 533
f 137 533 509
f 532 509 533
f 33 535 428
f 113 428 534
f 143 534 535
f 428 535 534
f 137 531 533
f 143 533 534
f 113 534 531
f 533 531 534
f 9 519 536
f 144 536 537
f 140 537 519
f 536 519 537
f 42 540 538
f 145 538 539
f 144 539 540
f 538 540 539
f 41 542 524
f 140 524 541
f 145 541 542
f 524 542 541
f 144 537 539
f 145 539 541
f 140 541 537
f 539 537 541
f 10 544 434
f 118 434 543
f 147 543 544
f 434 544 543
f 33 438 545
f 146 545 546
f 118 546 438
f 545 438 546
f 42 549 547
f 147 547 548
f 146 548 549
f 547 549 548
f 118 543 546
f 146 546 548
f 147 548 543
f 546 543 548
f 41 532 542
f 145 542 550
f 143 550 532
f 542 532 550
f 42 538 549
f 146 549 551
f 145 551 538
f 549 538 551
f 33 545 535
f 143 535 552
f 146 552 545
f 535 545 552
f 145 550 551
f 146 551 552
f 143 552 550
f 551 550 552
f 5 333 443
f 121 443 553
f 89 553 333
f 443 333 553
f 34 447 554
f 148 554 555
f 121 555 447
f 554 447 555
f 26 557 338
f 89 338 556
f 148 556 557
f 338 557 556
f 121 553 555
f 148 555 556
f 89 556 553
f 555 553 556
f 10 432 309
f 84 309 558
f 116 558 432
f 309 432 558
f 23 313 559
f 149 559 560
f 84 560 313
f 559 313 560
f 34 562 437
f 116 437 561
f 149 561 562
f 437 562 561
f 84 558 560
f 149 560 561
f 116 561 558
f 560 558 561
f 6 300 320
f 86 320 563
f 80 563 300
f 320 300 563
f 26 323 564
f 150 564 565
f 86 565 323
f 564 323 565
f 23 567 304
f 80 304 566
f 150 566 567
f 304 567 566
f 86 563 565
f 150 565 566
f 80 566 563
f 565 563 566
f 34 554 562
f 149 562 568
f 148 568 554
f 562 554 568
f 23 559 567
f 150 567 569
f 149 569 559
f 567 559 569
f 26 564 557
f 148 557 570
f 150 570 564
f 557 564 570
f 149 568 569
f 150 569 570
f 148 570 568
f 569 568 570
f 3 359 469
f 128 469 571
f 96 571 359
f 469 359 571
f 36 473 572
f 151 572 573
f 128 573 473
f 572 473 573
f 28 575 364
f 96 364 574
f 151 574 575
f 364 575 574
f 128 571 573
f 151 573 574
f 96 574 571
f 573 571 574
f 5 460 335
f 91 335 576
f 124 576 460
f 335 460 576
f 25 339 577
f 152 577 578
f 91 578 339
f 577 339 578
f 36 580 464
f 124 464 579
f 152 579 580
f 464 580 579
f 91 576 578
f 152 578 579
f 124 579 576
f 578 576 579
f 12 326 346
f 93 346 581
f 87 581 326
f 346 326 581
f 28 349 582
f 153 582 583
f 93 583 349
f 582 349 583
f 25 585 330
f 87 330 584
f 153 584 585
f 330 585 584
f 93 581 583
f 153 583 584
f 87 584 581
f 583 581 584
f 36 572 580
f 152 580 586
f 151 586 572
f 580 572 586
f 25 577 585
f 153 585 587
f 152 587 577
f 585 577 587
f 28 582 575
f 151 575 588
f 153 588 582
f 575 582 588
f 152 586 587
f 153 587 588
f 151 588 586
f 587 586 588
f 7 385 495
f 135 495 589
f 103 589 385
f 495 385 589
f 38 499 590
f 154 590 591
f 135 591 499
f 590 499 591
f 30 593 390
f 103 390 592
f 154 592 593
f 390 593 592
f 135 589 591
f 154 591 592
f 103 592 589
f 591 589 592
f 3 486 361
f 98 361 594
f 131 594 486
f 361 486 594
f 27 365 595
f 155 595 596
f 98 596 365
f 595 365 596
f 38 598 490
f 131 490 597
f 155 597 598
f 490 598 597
f 98 594 596
f 155 596 597
f 131 597 594
f 596 594 597
f 11 352 372
f 100 372 599
f 94 599 352
f 372 352 599
f 30 375 600
f 156 600 601
f 100 601 375
f 600 375 601
f 27 603 356
f 94 356 602
f 156 602 603
f 356 603 602
f 100 599 601
f 156 601 602
f 94 602 599
f 601 599 602
f 38 590 598
f 155 598 604
f 154 604 590
f 598 590 604
f 27 595 603
f 156 603 605
f 155 605 595
f 603 595 605
f 30 600 593
f 154 593 606
f 156 606 600
f 593 600 606
f 155 604 605
f 156 605 606
f 154 606 604
f 605 604 606
f 9 411 521
f 142 521 607
f 110 607 411
f 521 411 607
f 40 525 608
f 157 608 609
f 142 609 525
f 608 525 609
f 32 611 416
f 110 416 610
f 157 610 611
f 416 611 610
f 142 607 609
f 157 609 610
f 110 610 607
f 609 607 610
f 7 512 387
f 105 387 612
f 138 612 512
f 387 512 612
f 29 391 613
f 158 613 614
f 105 614 391
f 613 391 614
f 40 616 516
f 138 516 615
f 158 615 616
f 516 616 615
f 105 612 614
f 158 614 615
f 138 615 612
f 614 612 615
f 8 378 398
f 107 398 617
f 101 617 378
f 398 378 617
f 32 401 618
f 159 618 619
f 107 619 401
f 618 401 619
f 29 621 382
f 101 382 620
f 159 620 621
f 382 621 620
f 107 617 619
f 159 619 620
f 101 620 617
f 619 617 620
f 40 608 616
f 158 616 622
f 157 622 608
f 616 608 622
f 29 613 621
f 159 621 623
f 158 623 613
f 621 613 623
f 32 618 611
f 157 611 624
f 159 624 618
f 611 618 624
f 158 622 623
f 159 623 624
f 157 624 622
f 623 622 624
f 10 307 544
f 147 544 625
f 82 625 307
f 544 307 625
f 42 547 626
f 160 626 627
f 147 627 547
f 626 547 627
f 24 629 312
f 82 312 628
f 160 628 629
f 312 629 628
f 147 625 627
f 160 627 628
f 82 628 625
f 627 625 628
f 9 536 413
f 112 413 630
f 144 630 536
f 413 536 630
f 31 417 631
f 161 631 632
f 112 632 417
f 631 417 632
f 42 634 540
f 144 540 633
f 161 633 634
f 540 634 633
f 112 630 632
f 161 632 633
f 144 633 630
f 632 630 633
f 2 404 294
f 79 294 635
f 108 635 404
f 294 404 635
f 24 297 636
f 162 636 637
f 79 637 297
f 636 297 637
f 31 639 408
f 108 408 638
f 162 638 639
f 408 639 638
f 79 635 637
f 162 637 638
f 108 638 635
f 637 635 638
f 42 626 634
f 161 634 640
f 160 640 626
f 634 626 640
f 31 631 639
f 162 639 641
f 161 641 631
f 639 631 641
f 24 636 629
f 160 629 642
f 162 642 636
f 629 636 642
f 161 640 641
f 162 641 642
f 160 642 640
f 641 640 642
